<svg xmlns="http://www.w3.org/2000/svg" version="1.1" width="330" height="113">
<path d="M 4.741000 86.552000 L 5.676000 86.552000 L 1.837000 96.254000 L 0.913000 96.254000 Z " fill="rgb(0, 0, 0)" fill-opacity="1.000000" />
<path d="M 4.785000 110.254000 L 0.869000 100.552000 L 1.815000 100.552000 L 5.720000 110.254000 Z " fill="rgb(0, 0, 0)" fill-opacity="1.000000" />
<path d="M 7.660000 109.968000 L 12.940000 109.968000 L 12.940000 110.870000 L 7.660000 110.870000 Z " fill="rgb(0, 0, 0)" fill-opacity="1.000000" />
<path d="M 14.660000 109.968000 L 19.940000 109.968000 L 19.940000 110.870000 L 14.660000 110.870000 Z " fill="rgb(0, 0, 0)" fill-opacity="1.000000" />
<path d="M 21.660000 109.968000 L 26.940000 109.968000 L 26.940000 110.870000 L 21.660000 110.870000 Z " fill="rgb(0, 0, 0)" fill-opacity="1.000000" />
<path d="M 32.741000 100.552000 L 33.676000 100.552000 L 29.837000 110.254000 L 28.913000 110.254000 Z " fill="rgb(0, 0, 0)" fill-opacity="1.000000" />
<path d="M 35.660000 109.968000 L 40.940000 109.968000 L 40.940000 110.870000 L 35.660000 110.870000 Z " fill="rgb(0, 0, 0)" fill-opacity="1.000000" />
<path d="M 46.741000 100.552000 L 47.676000 100.552000 L 43.837000 110.254000 L 42.913000 110.254000 Z " fill="rgb(0, 0, 0)" fill-opacity="1.000000" />
<path d="M 53.741000 100.552000 L 54.676000 100.552000 L 50.837000 110.254000 L 49.913000 110.254000 Z " fill="rgb(0, 0, 0)" fill-opacity="1.000000" />
<path d="M 56.660000 109.968000 L 61.940000 109.968000 L 61.940000 110.870000 L 56.660000 110.870000 Z " fill="rgb(0, 0, 0)" fill-opacity="1.000000" />
<path d="M 67.741000 100.552000 L 68.676000 100.552000 L 64.837000 110.254000 L 63.913000 110.254000 Z " fill="rgb(0, 0, 0)" fill-opacity="1.000000" />
<path d="M 74.785000 110.254000 L 70.869000 100.552000 L 71.815000 100.552000 L 75.720000 110.254000 Z " fill="rgb(0, 0, 0)" fill-opacity="1.000000" />
<path d="M 77.660000 109.968000 L 82.940000 109.968000 L 82.940000 110.870000 L 77.660000 110.870000 Z " fill="rgb(0, 0, 0)" fill-opacity="1.000000" />
<path d="M 84.660000 109.968000 L 89.940000 109.968000 L 89.940000 110.870000 L 84.660000 110.870000 Z " fill="rgb(0, 0, 0)" fill-opacity="1.000000" />
<path d="M 95.741000 100.552000 L 96.676000 100.552000 L 92.837000 110.254000 L 91.913000 110.254000 Z " fill="rgb(0, 0, 0)" fill-opacity="1.000000" />
<path d="M 102.785000 110.254000 L 98.869000 100.552000 L 99.815000 100.552000 L 103.720000 110.254000 Z " fill="rgb(0, 0, 0)" fill-opacity="1.000000" />
<path d="M 105.660000 109.968000 L 110.940000 109.968000 L 110.940000 110.870000 L 105.660000 110.870000 Z " fill="rgb(0, 0, 0)" fill-opacity="1.000000" />
<path d="M 112.660000 109.968000 L 117.940000 109.968000 L 117.940000 110.870000 L 112.660000 110.870000 Z " fill="rgb(0, 0, 0)" fill-opacity="1.000000" />
<path d="M 123.741000 100.552000 L 124.676000 100.552000 L 120.837000 110.254000 L 119.913000 110.254000 Z " fill="rgb(0, 0, 0)" fill-opacity="1.000000" />
<path d="M 126.660000 109.968000 L 131.940000 109.968000 L 131.940000 110.870000 L 126.660000 110.870000 Z " fill="rgb(0, 0, 0)" fill-opacity="1.000000" />
<path d="M 137.741000 100.552000 L 138.676000 100.552000 L 134.837000 110.254000 L 133.913000 110.254000 Z " fill="rgb(0, 0, 0)" fill-opacity="1.000000" />
<path d="M 144.785000 110.254000 L 140.869000 100.552000 L 141.815000 100.552000 L 145.720000 110.254000 Z " fill="rgb(0, 0, 0)" fill-opacity="1.000000" />
<path d="M 147.660000 109.968000 L 152.940000 109.968000 L 152.940000 110.870000 L 147.660000 110.870000 Z " fill="rgb(0, 0, 0)" fill-opacity="1.000000" />
<path d="M 158.785000 110.254000 L 154.869000 100.552000 L 155.815000 100.552000 L 159.720000 110.254000 Z " fill="rgb(0, 0, 0)" fill-opacity="1.000000" />
<path d="M 172.741000 100.552000 L 173.676000 100.552000 L 169.837000 110.254000 L 168.913000 110.254000 Z " fill="rgb(0, 0, 0)" fill-opacity="1.000000" />
<path d="M 175.660000 109.968000 L 180.940000 109.968000 L 180.940000 110.870000 L 175.660000 110.870000 Z " fill="rgb(0, 0, 0)" fill-opacity="1.000000" />
<path d="M 186.741000 100.552000 L 187.676000 100.552000 L 183.837000 110.254000 L 182.913000 110.254000 Z " fill="rgb(0, 0, 0)" fill-opacity="1.000000" />
<path d="M 207.741000 100.552000 L 208.676000 100.552000 L 204.837000 110.254000 L 203.913000 110.254000 Z " fill="rgb(0, 0, 0)" fill-opacity="1.000000" />
<path d="M 210.660000 109.968000 L 215.940000 109.968000 L 215.940000 110.870000 L 210.660000 110.870000 Z " fill="rgb(0, 0, 0)" fill-opacity="1.000000" />
<path d="M 221.741000 100.552000 L 222.676000 100.552000 L 218.837000 110.254000 L 217.913000 110.254000 Z " fill="rgb(0, 0, 0)" fill-opacity="1.000000" />
<path d="M 228.785000 110.254000 L 224.869000 100.552000 L 225.815000 100.552000 L 229.720000 110.254000 Z " fill="rgb(0, 0, 0)" fill-opacity="1.000000" />
<path d="M 231.660000 109.968000 L 236.940000 109.968000 L 236.940000 110.870000 L 231.660000 110.870000 Z " fill="rgb(0, 0, 0)" fill-opacity="1.000000" />
<path d="M 238.660000 109.968000 L 243.940000 109.968000 L 243.940000 110.870000 L 238.660000 110.870000 Z " fill="rgb(0, 0, 0)" fill-opacity="1.000000" />
<path d="M 245.660000 109.968000 L 250.940000 109.968000 L 250.940000 110.870000 L 245.660000 110.870000 Z " fill="rgb(0, 0, 0)" fill-opacity="1.000000" />
<path d="M 256.741000 100.552000 L 257.676000 100.552000 L 253.837000 110.254000 L 252.913000 110.254000 Z " fill="rgb(0, 0, 0)" fill-opacity="1.000000" />
<path d="M 263.785000 110.254000 L 259.869000 100.552000 L 260.815000 100.552000 L 264.720000 110.254000 Z " fill="rgb(0, 0, 0)" fill-opacity="1.000000" />
<path d="M 266.660000 109.968000 L 271.940000 109.968000 L 271.940000 110.870000 L 266.660000 110.870000 Z " fill="rgb(0, 0, 0)" fill-opacity="1.000000" />
<path d="M 275.607000 108.593000 Q 275.640000 108.494000 275.640000 108.373000 L 275.640000 107.515000 L 276.960000 107.515000 L 276.960000 108.329000 Q 276.960000 108.472000 276.883000 108.626000 L 275.761000 110.936000 L 274.859000 110.936000 L 275.607000 108.593000 Z " fill="rgb(0, 0, 0)" fill-opacity="1.000000" />
<path d="M 280.660000 109.968000 L 285.940000 109.968000 L 285.940000 110.870000 L 280.660000 110.870000 Z " fill="rgb(0, 0, 0)" fill-opacity="1.000000" />
<path d="M 291.741000 100.552000 L 292.676000 100.552000 L 288.837000 110.254000 L 287.913000 110.254000 Z " fill="rgb(0, 0, 0)" fill-opacity="1.000000" />
<path d="M 298.785000 110.254000 L 294.869000 100.552000 L 295.815000 100.552000 L 299.720000 110.254000 Z " fill="rgb(0, 0, 0)" fill-opacity="1.000000" />
<path d="M 301.660000 109.968000 L 306.940000 109.968000 L 306.940000 110.870000 L 301.660000 110.870000 Z " fill="rgb(0, 0, 0)" fill-opacity="1.000000" />
<path d="M 308.660000 109.968000 L 313.940000 109.968000 L 313.940000 110.870000 L 308.660000 110.870000 Z " fill="rgb(0, 0, 0)" fill-opacity="1.000000" />
<path d="M 319.741000 100.552000 L 320.676000 100.552000 L 316.837000 110.254000 L 315.913000 110.254000 Z " fill="rgb(0, 0, 0)" fill-opacity="1.000000" />
<path d="M 18.741000 86.552000 L 19.676000 86.552000 L 15.837000 96.254000 L 14.913000 96.254000 Z " fill="rgb(0, 0, 0)" fill-opacity="1.000000" />
<path d="M 21.660000 95.968000 L 26.940000 95.968000 L 26.940000 96.870000 L 21.660000 96.870000 Z " fill="rgb(0, 0, 0)" fill-opacity="1.000000" />
<path d="M 28.660000 95.968000 L 33.940000 95.968000 L 33.940000 96.870000 L 28.660000 96.870000 Z " fill="rgb(0, 0, 0)" fill-opacity="1.000000" />
<path d="M 39.741000 86.552000 L 40.676000 86.552000 L 36.837000 96.254000 L 35.913000 96.254000 Z " fill="rgb(0, 0, 0)" fill-opacity="1.000000" />
<path d="M 49.660000 95.968000 L 54.940000 95.968000 L 54.940000 96.870000 L 49.660000 96.870000 Z " fill="rgb(0, 0, 0)" fill-opacity="1.000000" />
<path d="M 67.785000 96.254000 L 63.869000 86.552000 L 64.815000 86.552000 L 68.720000 96.254000 Z " fill="rgb(0, 0, 0)" fill-opacity="1.000000" />
<path d="M 74.741000 86.552000 L 75.676000 86.552000 L 71.837000 96.254000 L 70.913000 96.254000 Z " fill="rgb(0, 0, 0)" fill-opacity="1.000000" />
<path d="M 85.419000 91.282000 L 89.181000 91.282000 L 89.181000 92.162000 L 85.419000 92.162000 Z " fill="rgb(0, 0, 0)" fill-opacity="1.000000" />
<path d="M 91.660000 95.968000 L 96.940000 95.968000 L 96.940000 96.870000 L 91.660000 96.870000 Z " fill="rgb(0, 0, 0)" fill-opacity="1.000000" />
<path d="M 99.397000 95.308000 Q 99.947000 95.253000 100.271500 95.082500 Q 100.596000 94.912000 100.788500 94.549000 Q 100.981000 94.186000 101.113000 93.537000 Q 101.223000 92.910000 101.267000 92.459000 Q 101.311000 92.008000 101.311000 91.403000 Q 101.311000 90.798000 101.267000 90.347000 Q 101.223000 89.896000 101.113000 89.269000 Q 100.992000 88.620000 100.799500 88.257000 Q 100.607000 87.894000 100.277000 87.723500 Q 99.947000 87.553000 99.397000 87.498000 L 99.386000 86.552000 Q 100.178000 86.607000 100.662000 86.843500 Q 101.146000 87.080000 101.448500 87.586000 Q 101.751000 88.092000 101.971000 89.005000 Q 102.114000 89.621000 102.169000 90.127000 Q 102.224000 90.633000 102.224000 91.403000 Q 102.224000 92.173000 102.169000 92.679000 Q 102.114000 93.185000 101.971000 93.801000 Q 101.751000 94.714000 101.448500 95.220000 Q 101.146000 95.726000 100.662000 95.962500 Q 100.178000 96.199000 99.386000 96.254000 L 99.397000 95.308000 Z " fill="rgb(0, 0, 0)" fill-opacity="1.000000" />
<path d="M 112.660000 95.968000 L 117.940000 95.968000 L 117.940000 96.870000 L 112.660000 96.870000 Z " fill="rgb(0, 0, 0)" fill-opacity="1.000000" />
<path d="M 119.660000 95.968000 L 124.940000 95.968000 L 124.940000 96.870000 L 119.660000 96.870000 Z " fill="rgb(0, 0, 0)" fill-opacity="1.000000" />
<path d="M 130.741000 86.552000 L 131.676000 86.552000 L 127.837000 96.254000 L 126.913000 96.254000 Z " fill="rgb(0, 0, 0)" fill-opacity="1.000000" />
<path d="M 149.695000 87.795000 L 149.695000 87.014000 L 150.872000 87.014000 L 150.872000 87.795000 L 150.652000 90.545000 L 149.915000 90.545000 Z " fill="rgb(0, 0, 0)" fill-opacity="1.000000" />
<path d="M 154.660000 95.968000 L 159.940000 95.968000 L 159.940000 96.870000 L 154.660000 96.870000 Z " fill="rgb(0, 0, 0)" fill-opacity="1.000000" />
<path d="M 165.741000 86.552000 L 166.676000 86.552000 L 162.837000 96.254000 L 161.913000 96.254000 Z " fill="rgb(0, 0, 0)" fill-opacity="1.000000" />
<path d="M 179.741000 86.552000 L 180.676000 86.552000 L 176.837000 96.254000 L 175.913000 96.254000 Z " fill="rgb(0, 0, 0)" fill-opacity="1.000000" />
<path d="M 193.741000 86.552000 L 194.676000 86.552000 L 190.837000 96.254000 L 189.913000 96.254000 Z " fill="rgb(0, 0, 0)" fill-opacity="1.000000" />
<path d="M 198.849000 86.486000 L 199.751000 86.486000 L 199.751000 96.078000 L 198.849000 96.078000 Z " fill="rgb(0, 0, 0)" fill-opacity="1.000000" />
<path d="M 203.660000 95.968000 L 208.940000 95.968000 L 208.940000 96.870000 L 203.660000 96.870000 Z " fill="rgb(0, 0, 0)" fill-opacity="1.000000" />
<path d="M 214.741000 86.552000 L 215.676000 86.552000 L 211.837000 96.254000 L 210.913000 96.254000 Z " fill="rgb(0, 0, 0)" fill-opacity="1.000000" />
<path d="M 228.741000 86.552000 L 229.676000 86.552000 L 225.837000 96.254000 L 224.913000 96.254000 Z " fill="rgb(0, 0, 0)" fill-opacity="1.000000" />
<path d="M 238.660000 95.968000 L 243.940000 95.968000 L 243.940000 96.870000 L 238.660000 96.870000 Z " fill="rgb(0, 0, 0)" fill-opacity="1.000000" />
<path d="M 256.785000 96.254000 L 252.869000 86.552000 L 253.815000 86.552000 L 257.720000 96.254000 Z " fill="rgb(0, 0, 0)" fill-opacity="1.000000" />
<path d="M 263.741000 86.552000 L 264.676000 86.552000 L 260.837000 96.254000 L 259.913000 96.254000 Z " fill="rgb(0, 0, 0)" fill-opacity="1.000000" />
<path d="M 273.660000 95.968000 L 278.940000 95.968000 L 278.940000 96.870000 L 273.660000 96.870000 Z " fill="rgb(0, 0, 0)" fill-opacity="1.000000" />
<path d="M 298.741000 86.552000 L 299.676000 86.552000 L 295.837000 96.254000 L 294.913000 96.254000 Z " fill="rgb(0, 0, 0)" fill-opacity="1.000000" />
<path d="M 309.419000 91.282000 L 313.181000 91.282000 L 313.181000 92.162000 L 309.419000 92.162000 Z " fill="rgb(0, 0, 0)" fill-opacity="1.000000" />
<path d="M 315.660000 95.968000 L 320.940000 95.968000 L 320.940000 96.870000 L 315.660000 96.870000 Z " fill="rgb(0, 0, 0)" fill-opacity="1.000000" />
<path d="M 323.397000 95.308000 Q 323.947000 95.253000 324.271500 95.082500 Q 324.596000 94.912000 324.788500 94.549000 Q 324.981000 94.186000 325.113000 93.537000 Q 325.223000 92.910000 325.267000 92.459000 Q 325.311000 92.008000 325.311000 91.403000 Q 325.311000 90.798000 325.267000 90.347000 Q 325.223000 89.896000 325.113000 89.269000 Q 324.992000 88.620000 324.799500 88.257000 Q 324.607000 87.894000 324.277000 87.723500 Q 323.947000 87.553000 323.397000 87.498000 L 323.386000 86.552000 Q 324.178000 86.607000 324.662000 86.843500 Q 325.146000 87.080000 325.448500 87.586000 Q 325.751000 88.092000 325.971000 89.005000 Q 326.114000 89.621000 326.169000 90.127000 Q 326.224000 90.633000 326.224000 91.403000 Q 326.224000 92.173000 326.169000 92.679000 Q 326.114000 93.185000 325.971000 93.801000 Q 325.751000 94.714000 325.448500 95.220000 Q 325.146000 95.726000 324.662000 95.962500 Q 324.178000 96.199000 323.386000 96.254000 L 323.397000 95.308000 Z " fill="rgb(0, 0, 0)" fill-opacity="1.000000" />
<path d="M 11.741000 72.552000 L 12.676000 72.552000 L 8.837000 82.254000 L 7.913000 82.254000 Z " fill="rgb(0, 0, 0)" fill-opacity="1.000000" />
<path d="M 21.660000 81.968000 L 26.940000 81.968000 L 26.940000 82.870000 L 21.660000 82.870000 Z " fill="rgb(0, 0, 0)" fill-opacity="1.000000" />
<path d="M 28.660000 81.968000 L 33.940000 81.968000 L 33.940000 82.870000 L 28.660000 82.870000 Z " fill="rgb(0, 0, 0)" fill-opacity="1.000000" />
<path d="M 35.660000 81.968000 L 40.940000 81.968000 L 40.940000 82.870000 L 35.660000 82.870000 Z " fill="rgb(0, 0, 0)" fill-opacity="1.000000" />
<path d="M 46.741000 72.552000 L 47.676000 72.552000 L 43.837000 82.254000 L 42.913000 82.254000 Z " fill="rgb(0, 0, 0)" fill-opacity="1.000000" />
<path d="M 60.741000 72.552000 L 61.676000 72.552000 L 57.837000 82.254000 L 56.913000 82.254000 Z " fill="rgb(0, 0, 0)" fill-opacity="1.000000" />
<path d="M 77.660000 81.968000 L 82.940000 81.968000 L 82.940000 82.870000 L 77.660000 82.870000 Z " fill="rgb(0, 0, 0)" fill-opacity="1.000000" />
<path d="M 84.660000 81.968000 L 89.940000 81.968000 L 89.940000 82.870000 L 84.660000 82.870000 Z " fill="rgb(0, 0, 0)" fill-opacity="1.000000" />
<path d="M 91.660000 81.968000 L 96.940000 81.968000 L 96.940000 82.870000 L 91.660000 82.870000 Z " fill="rgb(0, 0, 0)" fill-opacity="1.000000" />
<path d="M 105.660000 81.968000 L 110.940000 81.968000 L 110.940000 82.870000 L 105.660000 82.870000 Z " fill="rgb(0, 0, 0)" fill-opacity="1.000000" />
<path d="M 112.660000 81.968000 L 117.940000 81.968000 L 117.940000 82.870000 L 112.660000 82.870000 Z " fill="rgb(0, 0, 0)" fill-opacity="1.000000" />
<path d="M 119.660000 81.968000 L 124.940000 81.968000 L 124.940000 82.870000 L 119.660000 82.870000 Z " fill="rgb(0, 0, 0)" fill-opacity="1.000000" />
<path d="M 126.660000 81.968000 L 131.940000 81.968000 L 131.940000 82.870000 L 126.660000 82.870000 Z " fill="rgb(0, 0, 0)" fill-opacity="1.000000" />
<path d="M 137.741000 72.552000 L 138.676000 72.552000 L 134.837000 82.254000 L 133.913000 82.254000 Z " fill="rgb(0, 0, 0)" fill-opacity="1.000000" />
<path d="M 151.741000 72.552000 L 152.676000 72.552000 L 148.837000 82.254000 L 147.913000 82.254000 Z " fill="rgb(0, 0, 0)" fill-opacity="1.000000" />
<path d="M 154.660000 81.968000 L 159.940000 81.968000 L 159.940000 82.870000 L 154.660000 82.870000 Z " fill="rgb(0, 0, 0)" fill-opacity="1.000000" />
<path d="M 161.660000 81.968000 L 166.940000 81.968000 L 166.940000 82.870000 L 161.660000 82.870000 Z " fill="rgb(0, 0, 0)" fill-opacity="1.000000" />
<path d="M 186.741000 72.552000 L 187.676000 72.552000 L 183.837000 82.254000 L 182.913000 82.254000 Z " fill="rgb(0, 0, 0)" fill-opacity="1.000000" />
<path d="M 205.849000 72.486000 L 206.751000 72.486000 L 206.751000 82.078000 L 205.849000 82.078000 Z " fill="rgb(0, 0, 0)" fill-opacity="1.000000" />
<path d="M 214.741000 72.552000 L 215.676000 72.552000 L 211.837000 82.254000 L 210.913000 82.254000 Z " fill="rgb(0, 0, 0)" fill-opacity="1.000000" />
<path d="M 235.741000 72.552000 L 236.676000 72.552000 L 232.837000 82.254000 L 231.913000 82.254000 Z " fill="rgb(0, 0, 0)" fill-opacity="1.000000" />
<path d="M 238.660000 81.968000 L 243.940000 81.968000 L 243.940000 82.870000 L 238.660000 82.870000 Z " fill="rgb(0, 0, 0)" fill-opacity="1.000000" />
<path d="M 245.660000 81.968000 L 250.940000 81.968000 L 250.940000 82.870000 L 245.660000 82.870000 Z " fill="rgb(0, 0, 0)" fill-opacity="1.000000" />
<path d="M 266.660000 81.968000 L 271.940000 81.968000 L 271.940000 82.870000 L 266.660000 82.870000 Z " fill="rgb(0, 0, 0)" fill-opacity="1.000000" />
<path d="M 273.660000 81.968000 L 278.940000 81.968000 L 278.940000 82.870000 L 273.660000 82.870000 Z " fill="rgb(0, 0, 0)" fill-opacity="1.000000" />
<path d="M 280.660000 81.968000 L 285.940000 81.968000 L 285.940000 82.870000 L 280.660000 82.870000 Z " fill="rgb(0, 0, 0)" fill-opacity="1.000000" />
<path d="M 291.741000 72.552000 L 292.676000 72.552000 L 288.837000 82.254000 L 287.913000 82.254000 Z " fill="rgb(0, 0, 0)" fill-opacity="1.000000" />
<path d="M 305.741000 72.552000 L 306.676000 72.552000 L 302.837000 82.254000 L 301.913000 82.254000 Z " fill="rgb(0, 0, 0)" fill-opacity="1.000000" />
<path d="M 308.660000 81.968000 L 313.940000 81.968000 L 313.940000 82.870000 L 308.660000 82.870000 Z " fill="rgb(0, 0, 0)" fill-opacity="1.000000" />
<path d="M 315.660000 81.968000 L 320.940000 81.968000 L 320.940000 82.870000 L 315.660000 82.870000 Z " fill="rgb(0, 0, 0)" fill-opacity="1.000000" />
<path d="M 14.660000 67.968000 L 19.940000 67.968000 L 19.940000 68.870000 L 14.660000 68.870000 Z " fill="rgb(0, 0, 0)" fill-opacity="1.000000" />
<path d="M 21.660000 67.968000 L 26.940000 67.968000 L 26.940000 68.870000 L 21.660000 68.870000 Z " fill="rgb(0, 0, 0)" fill-opacity="1.000000" />
<path d="M 28.660000 67.968000 L 33.940000 67.968000 L 33.940000 68.870000 L 28.660000 68.870000 Z " fill="rgb(0, 0, 0)" fill-opacity="1.000000" />
<path d="M 35.660000 67.968000 L 40.940000 67.968000 L 40.940000 68.870000 L 35.660000 68.870000 Z " fill="rgb(0, 0, 0)" fill-opacity="1.000000" />
<path d="M 42.660000 67.968000 L 47.940000 67.968000 L 47.940000 68.870000 L 42.660000 68.870000 Z " fill="rgb(0, 0, 0)" fill-opacity="1.000000" />
<path d="M 49.660000 67.968000 L 54.940000 67.968000 L 54.940000 68.870000 L 49.660000 68.870000 Z " fill="rgb(0, 0, 0)" fill-opacity="1.000000" />
<path d="M 56.660000 67.968000 L 61.940000 67.968000 L 61.940000 68.870000 L 56.660000 68.870000 Z " fill="rgb(0, 0, 0)" fill-opacity="1.000000" />
<path d="M 63.660000 67.968000 L 68.940000 67.968000 L 68.940000 68.870000 L 63.660000 68.870000 Z " fill="rgb(0, 0, 0)" fill-opacity="1.000000" />
<path d="M 70.660000 67.968000 L 75.940000 67.968000 L 75.940000 68.870000 L 70.660000 68.870000 Z " fill="rgb(0, 0, 0)" fill-opacity="1.000000" />
<path d="M 77.660000 67.968000 L 82.940000 67.968000 L 82.940000 68.870000 L 77.660000 68.870000 Z " fill="rgb(0, 0, 0)" fill-opacity="1.000000" />
<path d="M 88.741000 58.552000 L 89.676000 58.552000 L 85.837000 68.254000 L 84.913000 68.254000 Z " fill="rgb(0, 0, 0)" fill-opacity="1.000000" />
<path d="M 140.660000 67.968000 L 145.940000 67.968000 L 145.940000 68.870000 L 140.660000 68.870000 Z " fill="rgb(0, 0, 0)" fill-opacity="1.000000" />
<path d="M 147.660000 67.968000 L 152.940000 67.968000 L 152.940000 68.870000 L 147.660000 68.870000 Z " fill="rgb(0, 0, 0)" fill-opacity="1.000000" />
<path d="M 189.660000 67.968000 L 194.940000 67.968000 L 194.940000 68.870000 L 189.660000 68.870000 Z " fill="rgb(0, 0, 0)" fill-opacity="1.000000" />
<path d="M 196.660000 67.968000 L 201.940000 67.968000 L 201.940000 68.870000 L 196.660000 68.870000 Z " fill="rgb(0, 0, 0)" fill-opacity="1.000000" />
<path d="M 217.660000 67.968000 L 222.940000 67.968000 L 222.940000 68.870000 L 217.660000 68.870000 Z " fill="rgb(0, 0, 0)" fill-opacity="1.000000" />
<path d="M 224.660000 67.968000 L 229.940000 67.968000 L 229.940000 68.870000 L 224.660000 68.870000 Z " fill="rgb(0, 0, 0)" fill-opacity="1.000000" />
<path d="M 231.660000 67.968000 L 236.940000 67.968000 L 236.940000 68.870000 L 231.660000 68.870000 Z " fill="rgb(0, 0, 0)" fill-opacity="1.000000" />
<path d="M 294.660000 67.968000 L 299.940000 67.968000 L 299.940000 68.870000 L 294.660000 68.870000 Z " fill="rgb(0, 0, 0)" fill-opacity="1.000000" />
<path d="M 301.660000 67.968000 L 306.940000 67.968000 L 306.940000 68.870000 L 301.660000 68.870000 Z " fill="rgb(0, 0, 0)" fill-opacity="1.000000" />
<path d="M 32.741000 44.552000 L 33.676000 44.552000 L 29.837000 54.254000 L 28.913000 54.254000 Z " fill="rgb(0, 0, 0)" fill-opacity="1.000000" />
<path d="M 35.660000 53.968000 L 40.940000 53.968000 L 40.940000 54.870000 L 35.660000 54.870000 Z " fill="rgb(0, 0, 0)" fill-opacity="1.000000" />
<path d="M 42.660000 53.968000 L 47.940000 53.968000 L 47.940000 54.870000 L 42.660000 54.870000 Z " fill="rgb(0, 0, 0)" fill-opacity="1.000000" />
<path d="M 49.660000 53.968000 L 54.940000 53.968000 L 54.940000 54.870000 L 49.660000 54.870000 Z " fill="rgb(0, 0, 0)" fill-opacity="1.000000" />
<path d="M 60.741000 44.552000 L 61.676000 44.552000 L 57.837000 54.254000 L 56.913000 54.254000 Z " fill="rgb(0, 0, 0)" fill-opacity="1.000000" />
<path d="M 67.785000 54.254000 L 63.869000 44.552000 L 64.815000 44.552000 L 68.720000 54.254000 Z " fill="rgb(0, 0, 0)" fill-opacity="1.000000" />
<path d="M 70.660000 53.968000 L 75.940000 53.968000 L 75.940000 54.870000 L 70.660000 54.870000 Z " fill="rgb(0, 0, 0)" fill-opacity="1.000000" />
<path d="M 79.607000 52.593000 Q 79.640000 52.494000 79.640000 52.373000 L 79.640000 51.515000 L 80.960000 51.515000 L 80.960000 52.329000 Q 80.960000 52.472000 80.883000 52.626000 L 79.761000 54.936000 L 78.859000 54.936000 L 79.607000 52.593000 Z " fill="rgb(0, 0, 0)" fill-opacity="1.000000" />
<path d="M 95.741000 44.552000 L 96.676000 44.552000 L 92.837000 54.254000 L 91.913000 54.254000 Z " fill="rgb(0, 0, 0)" fill-opacity="1.000000" />
<path d="M 98.660000 53.968000 L 103.940000 53.968000 L 103.940000 54.870000 L 98.660000 54.870000 Z " fill="rgb(0, 0, 0)" fill-opacity="1.000000" />
<path d="M 105.660000 53.968000 L 110.940000 53.968000 L 110.940000 54.870000 L 105.660000 54.870000 Z " fill="rgb(0, 0, 0)" fill-opacity="1.000000" />
<path d="M 112.660000 53.968000 L 117.940000 53.968000 L 117.940000 54.870000 L 112.660000 54.870000 Z " fill="rgb(0, 0, 0)" fill-opacity="1.000000" />
<path d="M 123.741000 44.552000 L 124.676000 44.552000 L 120.837000 54.254000 L 119.913000 54.254000 Z " fill="rgb(0, 0, 0)" fill-opacity="1.000000" />
<path d="M 130.785000 54.254000 L 126.869000 44.552000 L 127.815000 44.552000 L 131.720000 54.254000 Z " fill="rgb(0, 0, 0)" fill-opacity="1.000000" />
<path d="M 133.660000 53.968000 L 138.940000 53.968000 L 138.940000 54.870000 L 133.660000 54.870000 Z " fill="rgb(0, 0, 0)" fill-opacity="1.000000" />
<path d="M 140.660000 53.968000 L 145.940000 53.968000 L 145.940000 54.870000 L 140.660000 54.870000 Z " fill="rgb(0, 0, 0)" fill-opacity="1.000000" />
<path d="M 151.741000 44.552000 L 152.676000 44.552000 L 148.837000 54.254000 L 147.913000 54.254000 Z " fill="rgb(0, 0, 0)" fill-opacity="1.000000" />
<path d="M 158.785000 54.254000 L 154.869000 44.552000 L 155.815000 44.552000 L 159.720000 54.254000 Z " fill="rgb(0, 0, 0)" fill-opacity="1.000000" />
<path d="M 161.660000 53.968000 L 166.940000 53.968000 L 166.940000 54.870000 L 161.660000 54.870000 Z " fill="rgb(0, 0, 0)" fill-opacity="1.000000" />
<path d="M 168.660000 53.968000 L 173.940000 53.968000 L 173.940000 54.870000 L 168.660000 54.870000 Z " fill="rgb(0, 0, 0)" fill-opacity="1.000000" />
<path d="M 179.741000 44.552000 L 180.676000 44.552000 L 176.837000 54.254000 L 175.913000 54.254000 Z " fill="rgb(0, 0, 0)" fill-opacity="1.000000" />
<path d="M 182.660000 53.968000 L 187.940000 53.968000 L 187.940000 54.870000 L 182.660000 54.870000 Z " fill="rgb(0, 0, 0)" fill-opacity="1.000000" />
<path d="M 193.741000 44.552000 L 194.676000 44.552000 L 190.837000 54.254000 L 189.913000 54.254000 Z " fill="rgb(0, 0, 0)" fill-opacity="1.000000" />
<path d="M 196.660000 53.968000 L 201.940000 53.968000 L 201.940000 54.870000 L 196.660000 54.870000 Z " fill="rgb(0, 0, 0)" fill-opacity="1.000000" />
<path d="M 207.741000 44.552000 L 208.676000 44.552000 L 204.837000 54.254000 L 203.913000 54.254000 Z " fill="rgb(0, 0, 0)" fill-opacity="1.000000" />
<path d="M 210.660000 53.968000 L 215.940000 53.968000 L 215.940000 54.870000 L 210.660000 54.870000 Z " fill="rgb(0, 0, 0)" fill-opacity="1.000000" />
<path d="M 221.741000 44.552000 L 222.676000 44.552000 L 218.837000 54.254000 L 217.913000 54.254000 Z " fill="rgb(0, 0, 0)" fill-opacity="1.000000" />
<path d="M 35.660000 39.968000 L 40.940000 39.968000 L 40.940000 40.870000 L 35.660000 40.870000 Z " fill="rgb(0, 0, 0)" fill-opacity="1.000000" />
<path d="M 46.785000 40.254000 L 42.869000 30.552000 L 43.815000 30.552000 L 47.720000 40.254000 Z " fill="rgb(0, 0, 0)" fill-opacity="1.000000" />
<path d="M 60.785000 40.254000 L 56.869000 30.552000 L 57.815000 30.552000 L 61.720000 40.254000 Z " fill="rgb(0, 0, 0)" fill-opacity="1.000000" />
<path d="M 67.741000 30.552000 L 68.676000 30.552000 L 64.837000 40.254000 L 63.913000 40.254000 Z " fill="rgb(0, 0, 0)" fill-opacity="1.000000" />
<path d="M 81.741000 30.552000 L 82.676000 30.552000 L 78.837000 40.254000 L 77.913000 40.254000 Z " fill="rgb(0, 0, 0)" fill-opacity="1.000000" />
<path d="M 88.741000 30.552000 L 89.676000 30.552000 L 85.837000 40.254000 L 84.913000 40.254000 Z " fill="rgb(0, 0, 0)" fill-opacity="1.000000" />
<path d="M 103.214000 40.254000 Q 102.422000 40.199000 101.938000 39.962500 Q 101.454000 39.726000 101.151500 39.220000 Q 100.849000 38.714000 100.629000 37.801000 Q 100.486000 37.185000 100.431000 36.679000 Q 100.376000 36.173000 100.376000 35.403000 Q 100.376000 34.633000 100.431000 34.127000 Q 100.486000 33.621000 100.629000 33.005000 Q 100.849000 32.092000 101.151500 31.586000 Q 101.454000 31.080000 101.938000 30.843500 Q 102.422000 30.607000 103.214000 30.552000 L 103.203000 31.498000 Q 102.653000 31.553000 102.323000 31.723500 Q 101.993000 31.894000 101.800500 32.257000 Q 101.608000 32.620000 101.487000 33.269000 Q 101.377000 33.896000 101.333000 34.347000 Q 101.289000 34.798000 101.289000 35.403000 Q 101.289000 36.008000 101.333000 36.459000 Q 101.377000 36.910000 101.487000 37.537000 Q 101.619000 38.186000 101.811500 38.549000 Q 102.004000 38.912000 102.328500 39.082500 Q 102.653000 39.253000 103.203000 39.308000 L 103.214000 40.254000 Z " fill="rgb(0, 0, 0)" fill-opacity="1.000000" />
<path d="M 105.660000 39.968000 L 110.940000 39.968000 L 110.940000 40.870000 L 105.660000 40.870000 Z " fill="rgb(0, 0, 0)" fill-opacity="1.000000" />
<path d="M 113.419000 35.282000 L 117.181000 35.282000 L 117.181000 36.162000 L 113.419000 36.162000 Z " fill="rgb(0, 0, 0)" fill-opacity="1.000000" />
<path d="M 119.825000 36.162000 L 119.825000 35.084000 L 124.775000 32.675000 L 124.775000 33.709000 L 120.694000 35.579000 L 120.694000 35.667000 L 124.775000 37.537000 L 124.775000 38.571000 Z " fill="rgb(0, 0, 0)" fill-opacity="1.000000" />
<path d="M 130.741000 30.552000 L 131.676000 30.552000 L 127.837000 40.254000 L 126.913000 40.254000 Z " fill="rgb(0, 0, 0)" fill-opacity="1.000000" />
<path d="M 140.660000 39.968000 L 145.940000 39.968000 L 145.940000 40.870000 L 140.660000 40.870000 Z " fill="rgb(0, 0, 0)" fill-opacity="1.000000" />
<path d="M 147.660000 39.968000 L 152.940000 39.968000 L 152.940000 40.870000 L 147.660000 40.870000 Z " fill="rgb(0, 0, 0)" fill-opacity="1.000000" />
<path d="M 158.741000 30.552000 L 159.676000 30.552000 L 155.837000 40.254000 L 154.913000 40.254000 Z " fill="rgb(0, 0, 0)" fill-opacity="1.000000" />
<path d="M 169.419000 35.282000 L 173.181000 35.282000 L 173.181000 36.162000 L 169.419000 36.162000 Z " fill="rgb(0, 0, 0)" fill-opacity="1.000000" />
<path d="M 175.660000 39.968000 L 180.940000 39.968000 L 180.940000 40.870000 L 175.660000 40.870000 Z " fill="rgb(0, 0, 0)" fill-opacity="1.000000" />
<path d="M 183.397000 39.308000 Q 183.947000 39.253000 184.271500 39.082500 Q 184.596000 38.912000 184.788500 38.549000 Q 184.981000 38.186000 185.113000 37.537000 Q 185.223000 36.910000 185.267000 36.459000 Q 185.311000 36.008000 185.311000 35.403000 Q 185.311000 34.798000 185.267000 34.347000 Q 185.223000 33.896000 185.113000 33.269000 Q 184.992000 32.620000 184.799500 32.257000 Q 184.607000 31.894000 184.277000 31.723500 Q 183.947000 31.553000 183.397000 31.498000 L 183.386000 30.552000 Q 184.178000 30.607000 184.662000 30.843500 Q 185.146000 31.080000 185.448500 31.586000 Q 185.751000 32.092000 185.971000 33.005000 Q 186.114000 33.621000 186.169000 34.127000 Q 186.224000 34.633000 186.224000 35.403000 Q 186.224000 36.173000 186.169000 36.679000 Q 186.114000 37.185000 185.971000 37.801000 Q 185.751000 38.714000 185.448500 39.220000 Q 185.146000 39.726000 184.662000 39.962500 Q 184.178000 40.199000 183.386000 40.254000 L 183.397000 39.308000 Z " fill="rgb(0, 0, 0)" fill-opacity="1.000000" />
<path d="M 205.695000 31.795000 L 205.695000 31.014000 L 206.872000 31.014000 L 206.872000 31.795000 L 206.652000 34.545000 L 205.915000 34.545000 Z " fill="rgb(0, 0, 0)" fill-opacity="1.000000" />
<path d="M 221.785000 40.254000 L 217.869000 30.552000 L 218.815000 30.552000 L 222.720000 40.254000 Z " fill="rgb(0, 0, 0)" fill-opacity="1.000000" />
<path d="M 46.741000 16.552000 L 47.676000 16.552000 L 43.837000 26.254000 L 42.913000 26.254000 Z " fill="rgb(0, 0, 0)" fill-opacity="1.000000" />
<path d="M 56.660000 25.968000 L 61.940000 25.968000 L 61.940000 26.870000 L 56.660000 26.870000 Z " fill="rgb(0, 0, 0)" fill-opacity="1.000000" />
<path d="M 63.660000 25.968000 L 68.940000 25.968000 L 68.940000 26.870000 L 63.660000 26.870000 Z " fill="rgb(0, 0, 0)" fill-opacity="1.000000" />
<path d="M 74.741000 16.552000 L 75.676000 16.552000 L 71.837000 26.254000 L 70.913000 26.254000 Z " fill="rgb(0, 0, 0)" fill-opacity="1.000000" />
<path d="M 77.660000 25.968000 L 82.940000 25.968000 L 82.940000 26.870000 L 77.660000 26.870000 Z " fill="rgb(0, 0, 0)" fill-opacity="1.000000" />
<path d="M 91.660000 25.968000 L 96.940000 25.968000 L 96.940000 26.870000 L 91.660000 26.870000 Z " fill="rgb(0, 0, 0)" fill-opacity="1.000000" />
<path d="M 98.660000 25.968000 L 103.940000 25.968000 L 103.940000 26.870000 L 98.660000 26.870000 Z " fill="rgb(0, 0, 0)" fill-opacity="1.000000" />
<path d="M 105.660000 25.968000 L 110.940000 25.968000 L 110.940000 26.870000 L 105.660000 26.870000 Z " fill="rgb(0, 0, 0)" fill-opacity="1.000000" />
<path d="M 112.660000 25.968000 L 117.940000 25.968000 L 117.940000 26.870000 L 112.660000 26.870000 Z " fill="rgb(0, 0, 0)" fill-opacity="1.000000" />
<path d="M 119.660000 25.968000 L 124.940000 25.968000 L 124.940000 26.870000 L 119.660000 26.870000 Z " fill="rgb(0, 0, 0)" fill-opacity="1.000000" />
<path d="M 137.741000 16.552000 L 138.676000 16.552000 L 134.837000 26.254000 L 133.913000 26.254000 Z " fill="rgb(0, 0, 0)" fill-opacity="1.000000" />
<path d="M 151.741000 16.552000 L 152.676000 16.552000 L 148.837000 26.254000 L 147.913000 26.254000 Z " fill="rgb(0, 0, 0)" fill-opacity="1.000000" />
<path d="M 154.660000 25.968000 L 159.940000 25.968000 L 159.940000 26.870000 L 154.660000 26.870000 Z " fill="rgb(0, 0, 0)" fill-opacity="1.000000" />
<path d="M 161.660000 25.968000 L 166.940000 25.968000 L 166.940000 26.870000 L 161.660000 26.870000 Z " fill="rgb(0, 0, 0)" fill-opacity="1.000000" />
<path d="M 168.660000 25.968000 L 173.940000 25.968000 L 173.940000 26.870000 L 168.660000 26.870000 Z " fill="rgb(0, 0, 0)" fill-opacity="1.000000" />
<path d="M 175.660000 25.968000 L 180.940000 25.968000 L 180.940000 26.870000 L 175.660000 26.870000 Z " fill="rgb(0, 0, 0)" fill-opacity="1.000000" />
<path d="M 189.660000 25.968000 L 194.940000 25.968000 L 194.940000 26.870000 L 189.660000 26.870000 Z " fill="rgb(0, 0, 0)" fill-opacity="1.000000" />
<path d="M 196.660000 25.968000 L 201.940000 25.968000 L 201.940000 26.870000 L 196.660000 26.870000 Z " fill="rgb(0, 0, 0)" fill-opacity="1.000000" />
<path d="M 210.660000 25.968000 L 215.940000 25.968000 L 215.940000 26.870000 L 210.660000 26.870000 Z " fill="rgb(0, 0, 0)" fill-opacity="1.000000" />
<path d="M 49.660000 11.968000 L 54.940000 11.968000 L 54.940000 12.870000 L 49.660000 12.870000 Z " fill="rgb(0, 0, 0)" fill-opacity="1.000000" />
<path d="M 56.660000 11.968000 L 61.940000 11.968000 L 61.940000 12.870000 L 56.660000 12.870000 Z " fill="rgb(0, 0, 0)" fill-opacity="1.000000" />
<path d="M 63.660000 11.968000 L 68.940000 11.968000 L 68.940000 12.870000 L 63.660000 12.870000 Z " fill="rgb(0, 0, 0)" fill-opacity="1.000000" />
<path d="M 70.660000 11.968000 L 75.940000 11.968000 L 75.940000 12.870000 L 70.660000 12.870000 Z " fill="rgb(0, 0, 0)" fill-opacity="1.000000" />
<path d="M 140.660000 11.968000 L 145.940000 11.968000 L 145.940000 12.870000 L 140.660000 12.870000 Z " fill="rgb(0, 0, 0)" fill-opacity="1.000000" />
<path d="M 147.660000 11.968000 L 152.940000 11.968000 L 152.940000 12.870000 L 147.660000 12.870000 Z " fill="rgb(0, 0, 0)" fill-opacity="1.000000" />
</svg>