<svg xmlns="http://www.w3.org/2000/svg" version="1.1" width="302" height="197">
<path d="M -0.066000 174.644000 L 6.666000 174.644000 L 6.666000 175.568000 L -0.066000 175.568000 Z " fill="#fb923c" fill-opacity="1.000000" />
<path d="M 6.934000 174.644000 L 13.666000 174.644000 L 13.666000 175.568000 L 6.934000 175.568000 Z " fill="#fb923c" fill-opacity="1.000000" />
<path d="M 13.934000 174.644000 L 20.666000 174.644000 L 20.666000 175.568000 L 13.934000 175.568000 Z " fill="#fb923c" fill-opacity="1.000000" />
<path d="M 20.934000 174.644000 L 27.666000 174.644000 L 27.666000 175.568000 L 20.934000 175.568000 Z " fill="#fb923c" fill-opacity="1.000000" />
<path d="M 27.934000 174.644000 L 34.666000 174.644000 L 34.666000 175.568000 L 27.934000 175.568000 Z " fill="#fb923c" fill-opacity="1.000000" />
<path d="M 34.934000 174.644000 L 41.666000 174.644000 L 41.666000 175.568000 L 34.934000 175.568000 Z " fill="#fb923c" fill-opacity="1.000000" />
<path d="M 41.934000 174.644000 L 48.666000 174.644000 L 48.666000 175.568000 L 41.934000 175.568000 Z " fill="#fb923c" fill-opacity="1.000000" />
<path d="M 48.934000 174.644000 L 55.666000 174.644000 L 55.666000 175.568000 L 48.934000 175.568000 Z " fill="#fb923c" fill-opacity="1.000000" />
<path d="M 55.934000 174.644000 L 62.666000 174.644000 L 62.666000 175.568000 L 55.934000 175.568000 Z " fill="#fb923c" fill-opacity="1.000000" />
<path d="M 62.934000 174.644000 L 69.666000 174.644000 L 69.666000 175.568000 L 62.934000 175.568000 Z " fill="#fb923c" fill-opacity="1.000000" />
<path d="M 69.934000 174.644000 L 76.666000 174.644000 L 76.666000 175.568000 L 69.934000 175.568000 Z " fill="#fb923c" fill-opacity="1.000000" />
<path d="M 76.934000 174.644000 L 83.666000 174.644000 L 83.666000 175.568000 L 76.934000 175.568000 Z " fill="#fb923c" fill-opacity="1.000000" />
<path d="M 83.934000 174.644000 L 90.666000 174.644000 L 90.666000 175.568000 L 83.934000 175.568000 Z " fill="#fb923c" fill-opacity="1.000000" />
<path d="M 90.934000 174.644000 L 97.666000 174.644000 L 97.666000 175.568000 L 90.934000 175.568000 Z " fill="#fb923c" fill-opacity="1.000000" />
<path d="M 97.934000 174.644000 L 104.666000 174.644000 L 104.666000 175.568000 L 97.934000 175.568000 Z " fill="#fb923c" fill-opacity="1.000000" />
<path d="M 104.934000 174.644000 L 111.666000 174.644000 L 111.666000 175.568000 L 104.934000 175.568000 Z " fill="#fb923c" fill-opacity="1.000000" />
<path d="M 111.934000 174.644000 L 118.666000 174.644000 L 118.666000 175.568000 L 111.934000 175.568000 Z " fill="#fb923c" fill-opacity="1.000000" />
<path d="M 118.934000 174.644000 L 125.666000 174.644000 L 125.666000 175.568000 L 118.934000 175.568000 Z " fill="#fb923c" fill-opacity="1.000000" />
<path d="M 125.934000 174.644000 L 132.666000 174.644000 L 132.666000 175.568000 L 125.934000 175.568000 Z " fill="#fb923c" fill-opacity="1.000000" />
<path d="M 132.934000 174.644000 L 139.666000 174.644000 L 139.666000 175.568000 L 132.934000 175.568000 Z " fill="#fb923c" fill-opacity="1.000000" />
<path d="M 139.934000 174.644000 L 146.666000 174.644000 L 146.666000 175.568000 L 139.934000 175.568000 Z " fill="#fb923c" fill-opacity="1.000000" />
<path d="M 146.934000 174.644000 L 153.666000 174.644000 L 153.666000 175.568000 L 146.934000 175.568000 Z " fill="#fb923c" fill-opacity="1.000000" />
<path d="M 153.934000 174.644000 L 160.666000 174.644000 L 160.666000 175.568000 L 153.934000 175.568000 Z " fill="#fb923c" fill-opacity="1.000000" />
<path d="M 160.934000 174.644000 L 167.666000 174.644000 L 167.666000 175.568000 L 160.934000 175.568000 Z " fill="#fb923c" fill-opacity="1.000000" />
<path d="M 167.934000 174.644000 L 174.666000 174.644000 L 174.666000 175.568000 L 167.934000 175.568000 Z " fill="#fb923c" fill-opacity="1.000000" />
<path d="M 174.934000 174.644000 L 181.666000 174.644000 L 181.666000 175.568000 L 174.934000 175.568000 Z " fill="#fb923c" fill-opacity="1.000000" />
<path d="M 181.934000 174.644000 L 188.666000 174.644000 L 188.666000 175.568000 L 181.934000 175.568000 Z " fill="#fb923c" fill-opacity="1.000000" />
<path d="M 188.934000 174.644000 L 195.666000 174.644000 L 195.666000 175.568000 L 188.934000 175.568000 Z " fill="#fb923c" fill-opacity="1.000000" />
<path d="M 195.934000 174.644000 L 202.666000 174.644000 L 202.666000 175.568000 L 195.934000 175.568000 Z " fill="#fb923c" fill-opacity="1.000000" />
<path d="M 202.934000 174.644000 L 209.666000 174.644000 L 209.666000 175.568000 L 202.934000 175.568000 Z " fill="#fb923c" fill-opacity="1.000000" />
<path d="M 209.934000 174.644000 L 216.666000 174.644000 L 216.666000 175.568000 L 209.934000 175.568000 Z " fill="#fb923c" fill-opacity="1.000000" />
<path d="M 216.934000 174.644000 L 223.666000 174.644000 L 223.666000 175.568000 L 216.934000 175.568000 Z " fill="#fb923c" fill-opacity="1.000000" />
<path d="M 223.934000 174.644000 L 230.666000 174.644000 L 230.666000 175.568000 L 223.934000 175.568000 Z " fill="#fb923c" fill-opacity="1.000000" />
<path d="M 230.934000 174.644000 L 237.666000 174.644000 L 237.666000 175.568000 L 230.934000 175.568000 Z " fill="#fb923c" fill-opacity="1.000000" />
<path d="M 237.934000 174.644000 L 244.666000 174.644000 L 244.666000 175.568000 L 237.934000 175.568000 Z " fill="#fb923c" fill-opacity="1.000000" />
<path d="M 244.934000 174.644000 L 251.666000 174.644000 L 251.666000 175.568000 L 244.934000 175.568000 Z " fill="#fb923c" fill-opacity="1.000000" />
<path d="M 251.934000 174.644000 L 258.666000 174.644000 L 258.666000 175.568000 L 251.934000 175.568000 Z " fill="#fb923c" fill-opacity="1.000000" />
<path d="M 258.934000 174.644000 L 265.666000 174.644000 L 265.666000 175.568000 L 258.934000 175.568000 Z " fill="#fb923c" fill-opacity="1.000000" />
<path d="M 265.934000 174.644000 L 272.666000 174.644000 L 272.666000 175.568000 L 265.934000 175.568000 Z " fill="#fb923c" fill-opacity="1.000000" />
<path d="M 272.934000 174.644000 L 279.666000 174.644000 L 279.666000 175.568000 L 272.934000 175.568000 Z " fill="#fb923c" fill-opacity="1.000000" />
<path d="M 279.934000 174.644000 L 286.666000 174.644000 L 286.666000 175.568000 L 279.934000 175.568000 Z " fill="#fb923c" fill-opacity="1.000000" />
<path d="M 286.934000 174.644000 L 293.666000 174.644000 L 293.666000 175.568000 L 286.934000 175.568000 Z " fill="#fb923c" fill-opacity="1.000000" />
<path d="M 293.934000 174.644000 L 300.666000 174.644000 L 300.666000 175.568000 L 293.934000 175.568000 Z " fill="#fb923c" fill-opacity="1.000000" />
<path d="M 0.990000 192.186000 L 2.948000 192.186000 L 2.948000 185.817000 L 1.100000 185.817000 L 1.100000 184.992000 L 3.839000 184.992000 L 3.839000 192.186000 L 5.665000 192.186000 L 5.665000 193.000000 L 0.990000 193.000000 Z " fill="#fb923c" fill-opacity="1.000000" />
<path d="M 10.377000 193.110000 Q 9.387000 193.110000 8.864500 192.846000 Q 8.342000 192.582000 8.127500 191.944000 Q 7.913000 191.306000 7.913000 190.096000 Q 7.913000 188.919000 8.133000 188.281000 Q 8.353000 187.643000 8.864500 187.384500 Q 9.376000 187.126000 10.289000 187.126000 Q 11.279000 187.126000 11.779500 187.417500 Q 12.280000 187.709000 12.467000 188.413000 Q 12.654000 189.117000 12.632000 190.492000 L 8.837000 190.492000 Q 8.870000 191.218000 9.013000 191.603000 Q 9.156000 191.988000 9.469500 192.142000 Q 9.783000 192.296000 10.366000 192.296000 Q 10.916000 192.296000 11.169000 192.136500 Q 11.422000 191.977000 11.565000 191.515000 L 12.522000 191.515000 Q 12.401000 192.153000 12.175500 192.494000 Q 11.950000 192.835000 11.532000 192.972500 Q 11.114000 193.110000 10.377000 193.110000 Z M 11.752000 189.689000 Q 11.730000 188.985000 11.592500 188.616500 Q 11.455000 188.248000 11.152500 188.094000 Q 10.850000 187.940000 10.289000 187.940000 Q 9.761000 187.940000 9.469500 188.094000 Q 9.178000 188.248000 9.040500 188.616500 Q 8.903000 188.985000 8.848000 189.689000 Z " fill="#fb923c" fill-opacity="1.000000" />
<path d="M 16.750000 184.992000 L 18.015000 184.992000 L 18.015000 186.246000 L 16.750000 186.246000 Z M 15.243000 192.186000 L 17.102000 192.186000 L 17.102000 188.061000 L 15.353000 188.061000 L 15.353000 187.258000 L 18.004000 187.258000 L 18.004000 192.186000 L 19.786000 192.186000 L 19.786000 192.989000 L 15.243000 192.989000 Z " fill="#fb923c" fill-opacity="1.000000" />
<path d="M 22.001000 184.992000 L 22.925000 184.992000 L 22.925000 188.105000 L 23.002000 188.105000 Q 23.255000 187.533000 23.612500 187.329500 Q 23.970000 187.126000 24.718000 187.126000 Q 25.455000 187.126000 25.851000 187.324000 Q 26.247000 187.522000 26.417500 187.984000 Q 26.588000 188.446000 26.588000 189.315000 L 26.588000 193.000000 L 25.675000 193.000000 L 25.675000 189.293000 Q 25.675000 188.765000 25.559500 188.479000 Q 25.444000 188.193000 25.180000 188.072000 Q 24.916000 187.951000 24.432000 187.951000 Q 23.838000 187.951000 23.519000 188.138000 Q 23.200000 188.325000 23.062500 188.765000 Q 22.925000 189.205000 22.925000 190.019000 L 22.925000 193.000000 L 22.001000 193.000000 Z " fill="#fb923c" fill-opacity="1.000000" />
<path d="M 30.464000 191.317000 L 32.136000 191.317000 L 32.136000 193.000000 L 30.464000 193.000000 Z " fill="#fb923c" fill-opacity="1.000000" />
<path d="M 35.990000 192.186000 L 37.948000 192.186000 L 37.948000 185.817000 L 36.100000 185.817000 L 36.100000 184.992000 L 38.839000 184.992000 L 38.839000 192.186000 L 40.665000 192.186000 L 40.665000 193.000000 L 35.990000 193.000000 Z " fill="#fb923c" fill-opacity="1.000000" />
<path d="M 45.289000 193.110000 Q 44.321000 193.110000 43.798500 192.840500 Q 43.276000 192.571000 43.056000 191.933000 Q 42.836000 191.295000 42.836000 190.118000 Q 42.836000 188.930000 43.056000 188.292000 Q 43.276000 187.654000 43.798500 187.384500 Q 44.321000 187.115000 45.289000 187.115000 Q 46.257000 187.115000 46.785000 187.384500 Q 47.313000 187.654000 47.533000 188.297500 Q 47.753000 188.941000 47.753000 190.118000 Q 47.753000 191.295000 47.533000 191.933000 Q 47.313000 192.571000 46.785000 192.840500 Q 46.257000 193.110000 45.289000 193.110000 Z M 43.760000 190.118000 Q 43.760000 190.976000 43.897500 191.438000 Q 44.035000 191.900000 44.359500 192.092500 Q 44.684000 192.285000 45.289000 192.285000 Q 45.894000 192.285000 46.224000 192.092500 Q 46.554000 191.900000 46.691500 191.438000 Q 46.829000 190.976000 46.829000 190.118000 Q 46.829000 189.249000 46.691500 188.787000 Q 46.554000 188.325000 46.224000 188.127000 Q 45.894000 187.929000 45.289000 187.929000 Q 44.684000 187.929000 44.359500 188.127000 Q 44.035000 188.325000 43.897500 188.787000 Q 43.760000 189.249000 43.760000 190.118000 Z " fill="#fb923c" fill-opacity="1.000000" />
<path d="M 51.266000 189.931000 L 51.266000 193.000000 L 50.364000 193.000000 L 50.364000 184.992000 L 51.266000 184.992000 L 51.266000 189.766000 L 53.631000 187.258000 L 54.819000 187.258000 L 52.366000 189.821000 L 55.182000 193.000000 L 53.950000 193.000000 Z " fill="#fb923c" fill-opacity="1.000000" />
<path d="M 58.739000 193.110000 Q 58.035000 193.110000 57.655500 192.956000 Q 57.276000 192.802000 57.116500 192.439000 Q 56.957000 192.076000 56.957000 191.405000 Q 56.957000 190.613000 57.188000 190.178500 Q 57.419000 189.744000 57.963500 189.562500 Q 58.508000 189.381000 59.509000 189.381000 L 60.543000 189.381000 L 60.543000 189.106000 Q 60.543000 188.644000 60.427500 188.391000 Q 60.312000 188.138000 60.031500 188.028000 Q 59.751000 187.918000 59.234000 187.918000 Q 58.563000 187.918000 58.321000 188.088500 Q 58.079000 188.259000 58.057000 188.743000 L 57.133000 188.743000 Q 57.133000 188.105000 57.320000 187.758500 Q 57.507000 187.412000 57.958000 187.263500 Q 58.409000 187.115000 59.234000 187.115000 Q 60.092000 187.115000 60.559500 187.291000 Q 61.027000 187.467000 61.219500 187.896000 Q 61.412000 188.325000 61.412000 189.106000 L 61.412000 193.000000 L 60.576000 193.000000 L 60.576000 192.263000 L 60.499000 192.263000 Q 60.213000 192.747000 59.844500 192.928500 Q 59.476000 193.110000 58.739000 193.110000 Z M 57.881000 191.306000 Q 57.881000 191.878000 58.112000 192.081500 Q 58.343000 192.285000 58.970000 192.285000 Q 59.586000 192.285000 59.916000 192.092500 Q 60.246000 191.900000 60.389000 191.449000 Q 60.532000 190.998000 60.532000 190.162000 L 59.289000 190.173000 Q 58.739000 190.184000 58.436500 190.288500 Q 58.134000 190.393000 58.007500 190.629500 Q 57.881000 190.866000 57.881000 191.306000 Z " fill="#fb923c" fill-opacity="1.000000" />
<path d="M 63.990000 192.186000 L 65.948000 192.186000 L 65.948000 185.817000 L 64.100000 185.817000 L 64.100000 184.992000 L 66.839000 184.992000 L 66.839000 192.186000 L 68.665000 192.186000 L 68.665000 193.000000 L 63.990000 193.000000 Z " fill="#fb923c" fill-opacity="1.000000" />
<path d="M 77.957000 185.520000 L 78.903000 185.520000 L 78.903000 189.095000 L 81.565000 185.520000 L 82.665000 185.520000 L 79.904000 189.161000 L 79.904000 189.194000 L 83.138000 193.000000 L 81.917000 193.000000 L 78.903000 189.337000 L 78.903000 193.000000 L 77.957000 193.000000 Z " fill="#fb923c" fill-opacity="1.000000" />
<path d="M 86.739000 193.110000 Q 86.035000 193.110000 85.655500 192.956000 Q 85.276000 192.802000 85.116500 192.439000 Q 84.957000 192.076000 84.957000 191.405000 Q 84.957000 190.613000 85.188000 190.178500 Q 85.419000 189.744000 85.963500 189.562500 Q 86.508000 189.381000 87.509000 189.381000 L 88.543000 189.381000 L 88.543000 189.106000 Q 88.543000 188.644000 88.427500 188.391000 Q 88.312000 188.138000 88.031500 188.028000 Q 87.751000 187.918000 87.234000 187.918000 Q 86.563000 187.918000 86.321000 188.088500 Q 86.079000 188.259000 86.057000 188.743000 L 85.133000 188.743000 Q 85.133000 188.105000 85.320000 187.758500 Q 85.507000 187.412000 85.958000 187.263500 Q 86.409000 187.115000 87.234000 187.115000 Q 88.092000 187.115000 88.559500 187.291000 Q 89.027000 187.467000 89.219500 187.896000 Q 89.412000 188.325000 89.412000 189.106000 L 89.412000 193.000000 L 88.576000 193.000000 L 88.576000 192.263000 L 88.499000 192.263000 Q 88.213000 192.747000 87.844500 192.928500 Q 87.476000 193.110000 86.739000 193.110000 Z M 85.881000 191.306000 Q 85.881000 191.878000 86.112000 192.081500 Q 86.343000 192.285000 86.970000 192.285000 Q 87.586000 192.285000 87.916000 192.092500 Q 88.246000 191.900000 88.389000 191.449000 Q 88.532000 190.998000 88.532000 190.162000 L 87.289000 190.173000 Q 86.739000 190.184000 86.436500 190.288500 Q 86.134000 190.393000 86.007500 190.629500 Q 85.881000 190.866000 85.881000 191.306000 Z " fill="#fb923c" fill-opacity="1.000000" />
<path d="M 92.837000 187.258000 L 93.717000 187.258000 L 93.684000 188.611000 L 93.772000 188.611000 Q 94.080000 187.907000 94.261500 187.637500 Q 94.443000 187.368000 94.652000 187.302000 Q 94.861000 187.236000 95.367000 187.225000 L 95.851000 187.214000 Q 96.126000 187.214000 96.456000 187.236000 L 96.456000 188.105000 Q 96.203000 188.094000 95.796000 188.094000 Q 95.389000 188.094000 95.136000 188.127000 Q 94.817000 188.182000 94.487000 188.473500 Q 94.157000 188.765000 93.942500 189.199500 Q 93.728000 189.634000 93.728000 190.096000 L 93.728000 193.000000 L 92.837000 193.000000 Z " fill="#fb923c" fill-opacity="1.000000" />
<path d="M 98.990000 192.186000 L 100.948000 192.186000 L 100.948000 185.817000 L 99.100000 185.817000 L 99.100000 184.992000 L 101.839000 184.992000 L 101.839000 192.186000 L 103.665000 192.186000 L 103.665000 193.000000 L 98.990000 193.000000 Z " fill="#fb923c" fill-opacity="1.000000" />
<path d="M 108.311000 193.110000 Q 107.387000 193.110000 106.881000 192.956000 Q 106.375000 192.802000 106.166000 192.428000 Q 105.957000 192.054000 105.957000 191.372000 L 106.892000 191.372000 Q 106.914000 191.746000 107.057000 191.938500 Q 107.200000 192.131000 107.513500 192.213500 Q 107.827000 192.296000 108.399000 192.296000 Q 108.905000 192.296000 109.180000 192.219000 Q 109.455000 192.142000 109.570500 191.966000 Q 109.686000 191.790000 109.686000 191.460000 Q 109.686000 191.163000 109.537500 190.970500 Q 109.389000 190.778000 109.037000 190.640500 Q 108.685000 190.503000 108.025000 190.371000 Q 107.244000 190.217000 106.820500 190.019000 Q 106.397000 189.821000 106.215500 189.518500 Q 106.034000 189.216000 106.034000 188.732000 Q 106.034000 188.094000 106.237500 187.753000 Q 106.441000 187.412000 106.919500 187.263500 Q 107.398000 187.115000 108.289000 187.115000 Q 109.125000 187.115000 109.576000 187.247000 Q 110.027000 187.379000 110.236000 187.703500 Q 110.445000 188.028000 110.478000 188.622000 L 109.565000 188.622000 Q 109.510000 188.215000 109.235000 188.072000 Q 108.960000 187.929000 108.278000 187.929000 Q 107.750000 187.929000 107.464000 188.000500 Q 107.178000 188.072000 107.057000 188.248000 Q 106.936000 188.424000 106.936000 188.743000 Q 106.936000 188.930000 107.095500 189.073000 Q 107.255000 189.216000 107.629000 189.353500 Q 108.003000 189.491000 108.696000 189.667000 Q 109.455000 189.854000 109.862000 190.074000 Q 110.269000 190.294000 110.434000 190.613000 Q 110.599000 190.932000 110.599000 191.438000 Q 110.599000 192.098000 110.390000 192.455500 Q 110.181000 192.813000 109.697000 192.961500 Q 109.213000 193.110000 108.311000 193.110000 Z " fill="#fb923c" fill-opacity="1.000000" />
<path d="M 113.837000 187.258000 L 114.717000 187.258000 L 114.684000 188.611000 L 114.772000 188.611000 Q 115.080000 187.907000 115.261500 187.637500 Q 115.443000 187.368000 115.652000 187.302000 Q 115.861000 187.236000 116.367000 187.225000 L 116.851000 187.214000 Q 117.126000 187.214000 117.456000 187.236000 L 117.456000 188.105000 Q 117.203000 188.094000 116.796000 188.094000 Q 116.389000 188.094000 116.136000 188.127000 Q 115.817000 188.182000 115.487000 188.473500 Q 115.157000 188.765000 114.942500 189.199500 Q 114.728000 189.634000 114.728000 190.096000 L 114.728000 193.000000 L 113.837000 193.000000 Z " fill="#fb923c" fill-opacity="1.000000" />
<path d="M 121.761000 193.110000 Q 121.057000 193.110000 120.677500 192.917500 Q 120.298000 192.725000 120.138500 192.257500 Q 119.979000 191.790000 119.979000 190.932000 L 119.979000 187.258000 L 120.903000 187.258000 L 120.903000 190.954000 Q 120.903000 191.471000 121.007500 191.757000 Q 121.112000 192.043000 121.354000 192.164000 Q 121.596000 192.285000 122.036000 192.285000 Q 122.674000 192.285000 123.015000 192.098000 Q 123.356000 191.911000 123.504500 191.471000 Q 123.653000 191.031000 123.653000 190.228000 L 123.653000 187.258000 L 124.566000 187.258000 L 124.566000 193.000000 L 123.653000 193.000000 L 123.653000 192.142000 L 123.576000 192.142000 Q 123.323000 192.692000 122.938000 192.901000 Q 122.553000 193.110000 121.761000 193.110000 Z " fill="#fb923c" fill-opacity="1.000000" />
<path d="M 127.001000 184.992000 L 127.925000 184.992000 L 127.925000 188.105000 L 128.002000 188.105000 Q 128.255000 187.533000 128.612500 187.329500 Q 128.970000 187.126000 129.718000 187.126000 Q 130.455000 187.126000 130.851000 187.324000 Q 131.247000 187.522000 131.417500 187.984000 Q 131.588000 188.446000 131.588000 189.315000 L 131.588000 193.000000 L 130.675000 193.000000 L 130.675000 189.293000 Q 130.675000 188.765000 130.559500 188.479000 Q 130.444000 188.193000 130.180000 188.072000 Q 129.916000 187.951000 129.432000 187.951000 Q 128.838000 187.951000 128.519000 188.138000 Q 128.200000 188.325000 128.062500 188.765000 Q 127.925000 189.205000 127.925000 190.019000 L 127.925000 193.000000 L 127.001000 193.000000 Z " fill="#fb923c" fill-opacity="1.000000" />
<path d="M 136.377000 193.110000 Q 135.387000 193.110000 134.864500 192.846000 Q 134.342000 192.582000 134.127500 191.944000 Q 133.913000 191.306000 133.913000 190.096000 Q 133.913000 188.919000 134.133000 188.281000 Q 134.353000 187.643000 134.864500 187.384500 Q 135.376000 187.126000 136.289000 187.126000 Q 137.279000 187.126000 137.779500 187.417500 Q 138.280000 187.709000 138.467000 188.413000 Q 138.654000 189.117000 138.632000 190.492000 L 134.837000 190.492000 Q 134.870000 191.218000 135.013000 191.603000 Q 135.156000 191.988000 135.469500 192.142000 Q 135.783000 192.296000 136.366000 192.296000 Q 136.916000 192.296000 137.169000 192.136500 Q 137.422000 191.977000 137.565000 191.515000 L 138.522000 191.515000 Q 138.401000 192.153000 138.175500 192.494000 Q 137.950000 192.835000 137.532000 192.972500 Q 137.114000 193.110000 136.377000 193.110000 Z M 137.752000 189.689000 Q 137.730000 188.985000 137.592500 188.616500 Q 137.455000 188.248000 137.152500 188.094000 Q 136.850000 187.940000 136.289000 187.940000 Q 135.761000 187.940000 135.469500 188.094000 Q 135.178000 188.248000 135.040500 188.616500 Q 134.903000 188.985000 134.848000 189.689000 Z " fill="#fb923c" fill-opacity="1.000000" />
<path d="M 185.300000 193.077000 Q 184.277000 193.077000 183.738000 192.901000 Q 183.199000 192.725000 182.973500 192.290500 Q 182.748000 191.856000 182.748000 191.042000 L 183.705000 191.042000 Q 183.749000 191.537000 183.908500 191.790000 Q 184.068000 192.043000 184.409000 192.142000 Q 184.750000 192.241000 185.410000 192.241000 Q 185.993000 192.241000 186.323000 192.147500 Q 186.653000 192.054000 186.796000 191.823000 Q 186.939000 191.592000 186.939000 191.152000 Q 186.939000 190.690000 186.763000 190.404000 Q 186.587000 190.118000 186.169000 189.892500 Q 185.751000 189.667000 184.937000 189.414000 Q 184.068000 189.139000 183.622500 188.869500 Q 183.177000 188.600000 182.990000 188.220500 Q 182.803000 187.841000 182.803000 187.214000 Q 182.803000 186.499000 183.023000 186.119500 Q 183.243000 185.740000 183.765500 185.580500 Q 184.288000 185.421000 185.256000 185.421000 Q 186.202000 185.421000 186.708000 185.575000 Q 187.214000 185.729000 187.439500 186.103000 Q 187.665000 186.477000 187.709000 187.192000 L 186.763000 187.192000 Q 186.719000 186.807000 186.576000 186.609000 Q 186.433000 186.411000 186.130500 186.334000 Q 185.828000 186.257000 185.278000 186.257000 Q 184.662000 186.257000 184.326500 186.350500 Q 183.991000 186.444000 183.853500 186.647500 Q 183.716000 186.851000 183.716000 187.225000 Q 183.716000 187.599000 183.892000 187.841000 Q 184.068000 188.083000 184.486000 188.286500 Q 184.904000 188.490000 185.751000 188.776000 Q 186.598000 189.073000 187.043500 189.359000 Q 187.489000 189.645000 187.670500 190.057500 Q 187.852000 190.470000 187.852000 191.163000 Q 187.852000 191.922000 187.626500 192.329000 Q 187.401000 192.736000 186.862000 192.906500 Q 186.323000 193.077000 185.300000 193.077000 Z " fill="#fb923c" fill-opacity="1.000000" />
<path d="M 191.816000 189.953000 L 189.671000 185.498000 L 190.694000 185.498000 L 192.267000 188.952000 L 192.322000 188.952000 L 193.906000 185.498000 L 194.918000 185.498000 L 192.762000 189.953000 L 192.762000 193.000000 L 191.816000 193.000000 Z " fill="#fb923c" fill-opacity="1.000000" />
<path d="M 199.300000 193.077000 Q 198.277000 193.077000 197.738000 192.901000 Q 197.199000 192.725000 196.973500 192.290500 Q 196.748000 191.856000 196.748000 191.042000 L 197.705000 191.042000 Q 197.749000 191.537000 197.908500 191.790000 Q 198.068000 192.043000 198.409000 192.142000 Q 198.750000 192.241000 199.410000 192.241000 Q 199.993000 192.241000 200.323000 192.147500 Q 200.653000 192.054000 200.796000 191.823000 Q 200.939000 191.592000 200.939000 191.152000 Q 200.939000 190.690000 200.763000 190.404000 Q 200.587000 190.118000 200.169000 189.892500 Q 199.751000 189.667000 198.937000 189.414000 Q 198.068000 189.139000 197.622500 188.869500 Q 197.177000 188.600000 196.990000 188.220500 Q 196.803000 187.841000 196.803000 187.214000 Q 196.803000 186.499000 197.023000 186.119500 Q 197.243000 185.740000 197.765500 185.580500 Q 198.288000 185.421000 199.256000 185.421000 Q 200.202000 185.421000 200.708000 185.575000 Q 201.214000 185.729000 201.439500 186.103000 Q 201.665000 186.477000 201.709000 187.192000 L 200.763000 187.192000 Q 200.719000 186.807000 200.576000 186.609000 Q 200.433000 186.411000 200.130500 186.334000 Q 199.828000 186.257000 199.278000 186.257000 Q 198.662000 186.257000 198.326500 186.350500 Q 197.991000 186.444000 197.853500 186.647500 Q 197.716000 186.851000 197.716000 187.225000 Q 197.716000 187.599000 197.892000 187.841000 Q 198.068000 188.083000 198.486000 188.286500 Q 198.904000 188.490000 199.751000 188.776000 Q 200.598000 189.073000 201.043500 189.359000 Q 201.489000 189.645000 201.670500 190.057500 Q 201.852000 190.470000 201.852000 191.163000 Q 201.852000 191.922000 201.626500 192.329000 Q 201.401000 192.736000 200.862000 192.906500 Q 200.323000 193.077000 199.300000 193.077000 Z " fill="#fb923c" fill-opacity="1.000000" />
<path d="M 205.816000 186.389000 L 203.792000 186.389000 L 203.792000 185.520000 L 208.797000 185.520000 L 208.797000 186.389000 L 206.762000 186.389000 L 206.762000 193.000000 L 205.816000 193.000000 Z " fill="#fb923c" fill-opacity="1.000000" />
<path d="M 211.254000 185.520000 L 215.401000 185.520000 L 215.401000 186.378000 L 212.200000 186.378000 L 212.200000 188.677000 L 214.983000 188.677000 L 214.983000 189.535000 L 212.200000 189.535000 L 212.200000 192.142000 L 215.621000 192.142000 L 215.621000 193.000000 L 211.254000 193.000000 Z " fill="#fb923c" fill-opacity="1.000000" />
<path d="M 217.627000 185.520000 L 218.881000 185.520000 L 220.234000 189.282000 L 220.355000 189.282000 L 221.708000 185.520000 L 222.962000 185.520000 L 222.962000 193.000000 L 222.060000 193.000000 L 222.060000 188.336000 L 222.170000 186.708000 L 222.115000 186.708000 L 220.740000 190.349000 L 219.849000 190.349000 L 218.474000 186.708000 L 218.419000 186.708000 L 218.529000 188.336000 L 218.529000 193.000000 L 217.627000 193.000000 Z " fill="#fb923c" fill-opacity="1.000000" />
<path d="M 234.586000 193.110000 Q 233.530000 193.110000 232.958000 192.769000 Q 232.386000 192.428000 232.149500 191.608500 Q 231.913000 190.789000 231.913000 189.271000 Q 231.913000 187.742000 232.149500 186.922500 Q 232.386000 186.103000 232.952500 185.756500 Q 233.519000 185.410000 234.575000 185.410000 Q 235.334000 185.410000 235.790500 185.586000 Q 236.247000 185.762000 236.489000 186.180000 Q 236.731000 186.598000 236.797000 187.335000 L 235.862000 187.335000 Q 235.785000 186.862000 235.636500 186.620000 Q 235.488000 186.378000 235.257000 186.295500 Q 235.026000 186.213000 234.630000 186.213000 Q 233.926000 186.213000 233.546500 186.477000 Q 233.167000 186.741000 233.013000 187.384500 Q 232.859000 188.028000 232.859000 189.249000 Q 232.859000 190.470000 233.013000 191.119000 Q 233.167000 191.768000 233.535500 192.037500 Q 233.904000 192.307000 234.597000 192.307000 Q 235.246000 192.307000 235.532000 192.076000 Q 235.818000 191.845000 235.928000 191.240000 L 236.863000 191.240000 Q 236.797000 191.955000 236.544000 192.362000 Q 236.291000 192.769000 235.818000 192.939500 Q 235.345000 193.110000 234.586000 193.110000 Z " fill="#fb923c" fill-opacity="1.000000" />
<path d="M 238.858000 185.520000 L 239.804000 185.520000 L 239.804000 188.666000 L 242.796000 188.666000 L 242.796000 185.520000 L 243.742000 185.520000 L 243.742000 193.000000 L 242.796000 193.000000 L 242.796000 189.535000 L 239.804000 189.535000 L 239.804000 193.000000 L 238.858000 193.000000 Z " fill="#fb923c" fill-opacity="1.000000" />
<path d="M 246.254000 185.520000 L 250.401000 185.520000 L 250.401000 186.378000 L 247.200000 186.378000 L 247.200000 188.677000 L 249.983000 188.677000 L 249.983000 189.535000 L 247.200000 189.535000 L 247.200000 192.142000 L 250.621000 192.142000 L 250.621000 193.000000 L 246.254000 193.000000 Z " fill="#fb923c" fill-opacity="1.000000" />
<path d="M 255.586000 193.110000 Q 254.530000 193.110000 253.958000 192.769000 Q 253.386000 192.428000 253.149500 191.608500 Q 252.913000 190.789000 252.913000 189.271000 Q 252.913000 187.742000 253.149500 186.922500 Q 253.386000 186.103000 253.952500 185.756500 Q 254.519000 185.410000 255.575000 185.410000 Q 256.334000 185.410000 256.790500 185.586000 Q 257.247000 185.762000 257.489000 186.180000 Q 257.731000 186.598000 257.797000 187.335000 L 256.862000 187.335000 Q 256.785000 186.862000 256.636500 186.620000 Q 256.488000 186.378000 256.257000 186.295500 Q 256.026000 186.213000 255.630000 186.213000 Q 254.926000 186.213000 254.546500 186.477000 Q 254.167000 186.741000 254.013000 187.384500 Q 253.859000 188.028000 253.859000 189.249000 Q 253.859000 190.470000 254.013000 191.119000 Q 254.167000 191.768000 254.535500 192.037500 Q 254.904000 192.307000 255.597000 192.307000 Q 256.246000 192.307000 256.532000 192.076000 Q 256.818000 191.845000 256.928000 191.240000 L 257.863000 191.240000 Q 257.797000 191.955000 257.544000 192.362000 Q 257.291000 192.769000 256.818000 192.939500 Q 256.345000 193.110000 255.586000 193.110000 Z " fill="#fb923c" fill-opacity="1.000000" />
<path d="M 259.957000 185.520000 L 260.903000 185.520000 L 260.903000 189.095000 L 263.565000 185.520000 L 264.665000 185.520000 L 261.904000 189.161000 L 261.904000 189.194000 L 265.138000 193.000000 L 263.917000 193.000000 L 260.903000 189.337000 L 260.903000 193.000000 L 259.957000 193.000000 Z " fill="#fb923c" fill-opacity="1.000000" />
<path d="M 273.627000 185.520000 L 274.881000 185.520000 L 276.234000 189.282000 L 276.355000 189.282000 L 277.708000 185.520000 L 278.962000 185.520000 L 278.962000 193.000000 L 278.060000 193.000000 L 278.060000 188.336000 L 278.170000 186.708000 L 278.115000 186.708000 L 276.740000 190.349000 L 275.849000 190.349000 L 274.474000 186.708000 L 274.419000 186.708000 L 274.529000 188.336000 L 274.529000 193.000000 L 273.627000 193.000000 Z " fill="#fb923c" fill-opacity="1.000000" />
<path d="M 283.300000 193.110000 Q 282.288000 193.110000 281.727000 192.763500 Q 281.166000 192.417000 280.929500 191.597500 Q 280.693000 190.778000 280.693000 189.282000 Q 280.693000 187.764000 280.929500 186.933500 Q 281.166000 186.103000 281.721500 185.756500 Q 282.277000 185.410000 283.300000 185.410000 Q 284.312000 185.410000 284.867500 185.762000 Q 285.423000 186.114000 285.659500 186.939000 Q 285.896000 187.764000 285.896000 189.282000 Q 285.896000 190.778000 285.659500 191.597500 Q 285.423000 192.417000 284.867500 192.763500 Q 284.312000 193.110000 283.300000 193.110000 Z M 281.639000 189.282000 Q 281.639000 190.459000 281.787500 191.091500 Q 281.936000 191.724000 282.288000 191.993500 Q 282.640000 192.263000 283.300000 192.263000 Q 283.949000 192.263000 284.301000 191.993500 Q 284.653000 191.724000 284.801500 191.091500 Q 284.950000 190.459000 284.950000 189.282000 Q 284.950000 188.094000 284.801500 187.445000 Q 284.653000 186.796000 284.301000 186.526500 Q 283.949000 186.257000 283.300000 186.257000 Q 282.640000 186.257000 282.288000 186.526500 Q 281.936000 186.796000 281.787500 187.445000 Q 281.639000 188.094000 281.639000 189.282000 Z " fill="#fb923c" fill-opacity="1.000000" />
<path d="M 289.530000 193.088000 Q 289.057000 193.088000 288.683000 193.066000 Q 288.309000 193.044000 287.913000 193.000000 L 287.913000 185.520000 Q 288.320000 185.476000 288.892000 185.476000 Q 289.530000 185.476000 289.992000 185.531000 Q 291.114000 185.652000 291.719000 186.026000 Q 292.324000 186.400000 292.582500 187.181000 Q 292.841000 187.962000 292.841000 189.370000 Q 292.841000 190.855000 292.549500 191.641500 Q 292.258000 192.428000 291.554000 192.758000 Q 290.850000 193.088000 289.530000 193.088000 Z M 289.156000 192.241000 Q 289.596000 192.263000 289.695000 192.263000 Q 289.805000 192.263000 290.135000 192.241000 Q 290.795000 192.186000 291.174500 191.911000 Q 291.554000 191.636000 291.724500 191.009000 Q 291.895000 190.382000 291.895000 189.249000 Q 291.895000 188.182000 291.730000 187.604500 Q 291.565000 187.027000 291.158000 186.746500 Q 290.751000 186.466000 289.981000 186.367000 Q 289.431000 186.290000 288.859000 186.312000 L 288.859000 192.219000 Z " fill="#fb923c" fill-opacity="1.000000" />
<path d="M 295.254000 185.520000 L 299.401000 185.520000 L 299.401000 186.378000 L 296.200000 186.378000 L 296.200000 188.677000 L 298.983000 188.677000 L 298.983000 189.535000 L 296.200000 189.535000 L 296.200000 192.142000 L 299.621000 192.142000 L 299.621000 193.000000 L 295.254000 193.000000 Z " fill="#fb923c" fill-opacity="1.000000" />
<path d="M 11.741000 72.552000 L 12.676000 72.552000 L 8.837000 82.254000 L 7.913000 82.254000 Z " fill="#fb923c" fill-opacity="1.000000" />
<path d="M 11.785000 96.254000 L 7.869000 86.552000 L 8.815000 86.552000 L 12.720000 96.254000 Z " fill="#fb923c" fill-opacity="1.000000" />
<path d="M 18.785000 110.254000 L 14.869000 100.552000 L 15.815000 100.552000 L 19.720000 110.254000 Z " fill="#fb923c" fill-opacity="1.000000" />
<path d="M 25.785000 124.254000 L 21.869000 114.552000 L 22.815000 114.552000 L 26.720000 124.254000 Z " fill="#fb923c" fill-opacity="1.000000" />
<path d="M 39.741000 128.552000 L 40.676000 128.552000 L 36.837000 138.254000 L 35.913000 138.254000 Z " fill="#fb923c" fill-opacity="1.000000" />
<path d="M 39.785000 152.254000 L 35.869000 142.552000 L 36.815000 142.552000 L 40.720000 152.254000 Z " fill="#fb923c" fill-opacity="1.000000" />
<path d="M 42.660000 151.968000 L 47.940000 151.968000 L 47.940000 152.870000 L 42.660000 152.870000 Z " fill="#fb923c" fill-opacity="1.000000" />
<path d="M 49.660000 151.968000 L 54.940000 151.968000 L 54.940000 152.870000 L 49.660000 152.870000 Z " fill="#fb923c" fill-opacity="1.000000" />
<path d="M 60.785000 152.254000 L 56.869000 142.552000 L 57.815000 142.552000 L 61.720000 152.254000 Z " fill="#fb923c" fill-opacity="1.000000" />
<path d="M 67.741000 142.552000 L 68.676000 142.552000 L 64.837000 152.254000 L 63.913000 152.254000 Z " fill="#fb923c" fill-opacity="1.000000" />
<path d="M 137.785000 152.254000 L 133.869000 142.552000 L 134.815000 142.552000 L 138.720000 152.254000 Z " fill="#fb923c" fill-opacity="1.000000" />
<path d="M 140.660000 151.968000 L 145.940000 151.968000 L 145.940000 152.870000 L 140.660000 152.870000 Z " fill="#fb923c" fill-opacity="1.000000" />
<path d="M 147.660000 151.968000 L 152.940000 151.968000 L 152.940000 152.870000 L 147.660000 152.870000 Z " fill="#fb923c" fill-opacity="1.000000" />
<path d="M 158.785000 152.254000 L 154.869000 142.552000 L 155.815000 142.552000 L 159.720000 152.254000 Z " fill="#fb923c" fill-opacity="1.000000" />
<path d="M 165.741000 142.552000 L 166.676000 142.552000 L 162.837000 152.254000 L 161.913000 152.254000 Z " fill="#fb923c" fill-opacity="1.000000" />
<path d="M 235.785000 152.254000 L 231.869000 142.552000 L 232.815000 142.552000 L 236.720000 152.254000 Z " fill="#fb923c" fill-opacity="1.000000" />
<path d="M 238.660000 151.968000 L 243.940000 151.968000 L 243.940000 152.870000 L 238.660000 152.870000 Z " fill="#fb923c" fill-opacity="1.000000" />
<path d="M 245.660000 151.968000 L 250.940000 151.968000 L 250.940000 152.870000 L 245.660000 152.870000 Z " fill="#fb923c" fill-opacity="1.000000" />
<path d="M 256.785000 152.254000 L 252.869000 142.552000 L 253.815000 142.552000 L 257.720000 152.254000 Z " fill="#fb923c" fill-opacity="1.000000" />
<path d="M 263.741000 142.552000 L 264.676000 142.552000 L 260.837000 152.254000 L 259.913000 152.254000 Z " fill="#fb923c" fill-opacity="1.000000" />
<path d="M 42.660000 137.968000 L 47.940000 137.968000 L 47.940000 138.870000 L 42.660000 138.870000 Z " fill="#fb923c" fill-opacity="1.000000" />
<path d="M 49.660000 137.968000 L 54.940000 137.968000 L 54.940000 138.870000 L 49.660000 138.870000 Z " fill="#fb923c" fill-opacity="1.000000" />
<path d="M 60.741000 128.552000 L 61.676000 128.552000 L 57.837000 138.254000 L 56.913000 138.254000 Z " fill="#fb923c" fill-opacity="1.000000" />
<path d="M 65.464000 134.877000 L 67.136000 134.877000 L 67.136000 136.560000 L 65.464000 136.560000 Z M 65.464000 130.664000 L 67.136000 130.664000 L 67.136000 132.347000 L 65.464000 132.347000 Z " fill="#fb923c" fill-opacity="1.000000" />
<path d="M 74.741000 128.552000 L 75.676000 128.552000 L 71.837000 138.254000 L 70.913000 138.254000 Z " fill="#fb923c" fill-opacity="1.000000" />
<path d="M 130.785000 138.254000 L 126.869000 128.552000 L 127.815000 128.552000 L 131.720000 138.254000 Z " fill="#fb923c" fill-opacity="1.000000" />
<path d="M 151.785000 138.254000 L 147.869000 128.552000 L 148.815000 128.552000 L 152.720000 138.254000 Z " fill="#fb923c" fill-opacity="1.000000" />
<path d="M 156.464000 134.877000 L 158.136000 134.877000 L 158.136000 136.560000 L 156.464000 136.560000 Z M 156.464000 130.664000 L 158.136000 130.664000 L 158.136000 132.347000 L 156.464000 132.347000 Z " fill="#fb923c" fill-opacity="1.000000" />
<path d="M 163.464000 134.877000 L 165.136000 134.877000 L 165.136000 136.560000 L 163.464000 136.560000 Z M 163.464000 130.664000 L 165.136000 130.664000 L 165.136000 132.347000 L 163.464000 132.347000 Z " fill="#fb923c" fill-opacity="1.000000" />
<path d="M 172.741000 128.552000 L 173.676000 128.552000 L 169.837000 138.254000 L 168.913000 138.254000 Z " fill="#fb923c" fill-opacity="1.000000" />
<path d="M 228.785000 138.254000 L 224.869000 128.552000 L 225.815000 128.552000 L 229.720000 138.254000 Z " fill="#fb923c" fill-opacity="1.000000" />
<path d="M 249.785000 138.254000 L 245.869000 128.552000 L 246.815000 128.552000 L 250.720000 138.254000 Z " fill="#fb923c" fill-opacity="1.000000" />
<path d="M 254.464000 134.877000 L 256.136000 134.877000 L 256.136000 136.560000 L 254.464000 136.560000 Z M 254.464000 130.664000 L 256.136000 130.664000 L 256.136000 132.347000 L 254.464000 132.347000 Z " fill="#fb923c" fill-opacity="1.000000" />
<path d="M 263.785000 138.254000 L 259.869000 128.552000 L 260.815000 128.552000 L 264.720000 138.254000 Z " fill="#fb923c" fill-opacity="1.000000" />
<path d="M 28.660000 123.968000 L 33.940000 123.968000 L 33.940000 124.870000 L 28.660000 124.870000 Z " fill="#fb923c" fill-opacity="1.000000" />
<path d="M 35.660000 123.968000 L 40.940000 123.968000 L 40.940000 124.870000 L 35.660000 124.870000 Z " fill="#fb923c" fill-opacity="1.000000" />
<path d="M 46.785000 124.254000 L 42.869000 114.552000 L 43.815000 114.552000 L 47.720000 124.254000 Z " fill="#fb923c" fill-opacity="1.000000" />
<path d="M 53.741000 114.552000 L 54.676000 114.552000 L 50.837000 124.254000 L 49.913000 124.254000 Z " fill="#fb923c" fill-opacity="1.000000" />
<path d="M 67.741000 114.552000 L 68.676000 114.552000 L 64.837000 124.254000 L 63.913000 124.254000 Z " fill="#fb923c" fill-opacity="1.000000" />
<path d="M 72.464000 120.877000 L 74.136000 120.877000 L 74.136000 122.560000 L 72.464000 122.560000 Z M 72.464000 116.664000 L 74.136000 116.664000 L 74.136000 118.347000 L 72.464000 118.347000 Z " fill="#fb923c" fill-opacity="1.000000" />
<path d="M 81.741000 114.552000 L 82.676000 114.552000 L 78.837000 124.254000 L 77.913000 124.254000 Z " fill="#fb923c" fill-opacity="1.000000" />
<path d="M 123.785000 124.254000 L 119.869000 114.552000 L 120.815000 114.552000 L 124.720000 124.254000 Z " fill="#fb923c" fill-opacity="1.000000" />
<path d="M 144.785000 124.254000 L 140.869000 114.552000 L 141.815000 114.552000 L 145.720000 124.254000 Z " fill="#fb923c" fill-opacity="1.000000" />
<path d="M 149.464000 120.877000 L 151.136000 120.877000 L 151.136000 122.560000 L 149.464000 122.560000 Z M 149.464000 116.664000 L 151.136000 116.664000 L 151.136000 118.347000 L 149.464000 118.347000 Z " fill="#fb923c" fill-opacity="1.000000" />
<path d="M 158.785000 124.254000 L 154.869000 114.552000 L 155.815000 114.552000 L 159.720000 124.254000 Z " fill="#fb923c" fill-opacity="1.000000" />
<path d="M 165.741000 114.552000 L 166.676000 114.552000 L 162.837000 124.254000 L 161.913000 124.254000 Z " fill="#fb923c" fill-opacity="1.000000" />
<path d="M 170.464000 120.877000 L 172.136000 120.877000 L 172.136000 122.560000 L 170.464000 122.560000 Z M 170.464000 116.664000 L 172.136000 116.664000 L 172.136000 118.347000 L 170.464000 118.347000 Z " fill="#fb923c" fill-opacity="1.000000" />
<path d="M 179.741000 114.552000 L 180.676000 114.552000 L 176.837000 124.254000 L 175.913000 124.254000 Z " fill="#fb923c" fill-opacity="1.000000" />
<path d="M 221.785000 124.254000 L 217.869000 114.552000 L 218.815000 114.552000 L 222.720000 124.254000 Z " fill="#fb923c" fill-opacity="1.000000" />
<path d="M 242.785000 124.254000 L 238.869000 114.552000 L 239.815000 114.552000 L 243.720000 124.254000 Z " fill="#fb923c" fill-opacity="1.000000" />
<path d="M 247.464000 120.877000 L 249.136000 120.877000 L 249.136000 122.560000 L 247.464000 122.560000 Z M 247.464000 116.664000 L 249.136000 116.664000 L 249.136000 118.347000 L 247.464000 118.347000 Z " fill="#fb923c" fill-opacity="1.000000" />
<path d="M 256.785000 124.254000 L 252.869000 114.552000 L 253.815000 114.552000 L 257.720000 124.254000 Z " fill="#fb923c" fill-opacity="1.000000" />
<path d="M 39.785000 110.254000 L 35.869000 100.552000 L 36.815000 100.552000 L 40.720000 110.254000 Z " fill="#fb923c" fill-opacity="1.000000" />
<path d="M 44.464000 106.877000 L 46.136000 106.877000 L 46.136000 108.560000 L 44.464000 108.560000 Z M 44.464000 102.664000 L 46.136000 102.664000 L 46.136000 104.347000 L 44.464000 104.347000 Z " fill="#fb923c" fill-opacity="1.000000" />
<path d="M 51.464000 106.877000 L 53.136000 106.877000 L 53.136000 108.560000 L 51.464000 108.560000 Z M 51.464000 102.664000 L 53.136000 102.664000 L 53.136000 104.347000 L 51.464000 104.347000 Z " fill="#fb923c" fill-opacity="1.000000" />
<path d="M 60.741000 100.552000 L 61.676000 100.552000 L 57.837000 110.254000 L 56.913000 110.254000 Z " fill="#fb923c" fill-opacity="1.000000" />
<path d="M 74.741000 100.552000 L 75.676000 100.552000 L 71.837000 110.254000 L 70.913000 110.254000 Z " fill="#fb923c" fill-opacity="1.000000" />
<path d="M 79.464000 106.877000 L 81.136000 106.877000 L 81.136000 108.560000 L 79.464000 108.560000 Z M 79.464000 102.664000 L 81.136000 102.664000 L 81.136000 104.347000 L 79.464000 104.347000 Z " fill="#fb923c" fill-opacity="1.000000" />
<path d="M 88.741000 100.552000 L 89.676000 100.552000 L 85.837000 110.254000 L 84.913000 110.254000 Z " fill="#fb923c" fill-opacity="1.000000" />
<path d="M 116.785000 110.254000 L 112.869000 100.552000 L 113.815000 100.552000 L 117.720000 110.254000 Z " fill="#fb923c" fill-opacity="1.000000" />
<path d="M 137.785000 110.254000 L 133.869000 100.552000 L 134.815000 100.552000 L 138.720000 110.254000 Z " fill="#fb923c" fill-opacity="1.000000" />
<path d="M 142.464000 106.877000 L 144.136000 106.877000 L 144.136000 108.560000 L 142.464000 108.560000 Z M 142.464000 102.664000 L 144.136000 102.664000 L 144.136000 104.347000 L 142.464000 104.347000 Z " fill="#fb923c" fill-opacity="1.000000" />
<path d="M 151.785000 110.254000 L 147.869000 100.552000 L 148.815000 100.552000 L 152.720000 110.254000 Z " fill="#fb923c" fill-opacity="1.000000" />
<path d="M 172.741000 100.552000 L 173.676000 100.552000 L 169.837000 110.254000 L 168.913000 110.254000 Z " fill="#fb923c" fill-opacity="1.000000" />
<path d="M 177.464000 106.877000 L 179.136000 106.877000 L 179.136000 108.560000 L 177.464000 108.560000 Z M 177.464000 102.664000 L 179.136000 102.664000 L 179.136000 104.347000 L 177.464000 104.347000 Z " fill="#fb923c" fill-opacity="1.000000" />
<path d="M 186.741000 100.552000 L 187.676000 100.552000 L 183.837000 110.254000 L 182.913000 110.254000 Z " fill="#fb923c" fill-opacity="1.000000" />
<path d="M 214.785000 110.254000 L 210.869000 100.552000 L 211.815000 100.552000 L 215.720000 110.254000 Z " fill="#fb923c" fill-opacity="1.000000" />
<path d="M 235.785000 110.254000 L 231.869000 100.552000 L 232.815000 100.552000 L 236.720000 110.254000 Z " fill="#fb923c" fill-opacity="1.000000" />
<path d="M 240.464000 106.877000 L 242.136000 106.877000 L 242.136000 108.560000 L 240.464000 108.560000 Z M 240.464000 102.664000 L 242.136000 102.664000 L 242.136000 104.347000 L 240.464000 104.347000 Z " fill="#fb923c" fill-opacity="1.000000" />
<path d="M 249.785000 110.254000 L 245.869000 100.552000 L 246.815000 100.552000 L 250.720000 110.254000 Z " fill="#fb923c" fill-opacity="1.000000" />
<path d="M 32.785000 96.254000 L 28.869000 86.552000 L 29.815000 86.552000 L 33.720000 96.254000 Z " fill="#fb923c" fill-opacity="1.000000" />
<path d="M 37.464000 92.877000 L 39.136000 92.877000 L 39.136000 94.560000 L 37.464000 94.560000 Z M 37.464000 88.664000 L 39.136000 88.664000 L 39.136000 90.347000 L 37.464000 90.347000 Z " fill="#fb923c" fill-opacity="1.000000" />
<path d="M 46.785000 96.254000 L 42.869000 86.552000 L 43.815000 86.552000 L 47.720000 96.254000 Z " fill="#fb923c" fill-opacity="1.000000" />
<path d="M 53.741000 86.552000 L 54.676000 86.552000 L 50.837000 96.254000 L 49.913000 96.254000 Z " fill="#fb923c" fill-opacity="1.000000" />
<path d="M 58.464000 92.877000 L 60.136000 92.877000 L 60.136000 94.560000 L 58.464000 94.560000 Z M 58.464000 88.664000 L 60.136000 88.664000 L 60.136000 90.347000 L 58.464000 90.347000 Z " fill="#fb923c" fill-opacity="1.000000" />
<path d="M 67.741000 86.552000 L 68.676000 86.552000 L 64.837000 96.254000 L 63.913000 96.254000 Z " fill="#fb923c" fill-opacity="1.000000" />
<path d="M 74.576000 92.855000 Q 74.235000 92.855000 74.037000 92.800000 Q 73.839000 92.745000 73.635500 92.591000 Q 73.432000 92.437000 73.069000 92.063000 Q 72.596000 91.590000 72.387000 91.452500 Q 72.178000 91.315000 71.958000 91.315000 Q 71.716000 91.315000 71.617000 91.386500 Q 71.518000 91.458000 71.485000 91.678000 Q 71.452000 91.898000 71.452000 92.415000 L 70.605000 92.415000 Q 70.605000 91.546000 70.698500 91.183000 Q 70.792000 90.820000 71.072500 90.699000 Q 71.353000 90.578000 72.013000 90.578000 Q 72.365000 90.578000 72.568500 90.633000 Q 72.772000 90.688000 72.981000 90.842000 Q 73.190000 90.996000 73.553000 91.370000 Q 74.015000 91.843000 74.224000 91.980500 Q 74.433000 92.118000 74.631000 92.118000 Q 74.884000 92.118000 74.988500 92.041000 Q 75.093000 91.964000 75.126000 91.738500 Q 75.159000 91.513000 75.159000 90.974000 L 75.995000 90.974000 Q 75.995000 91.854000 75.901500 92.233500 Q 75.808000 92.613000 75.522000 92.734000 Q 75.236000 92.855000 74.576000 92.855000 Z " fill="#fb923c" fill-opacity="1.000000" />
<path d="M 81.741000 86.552000 L 82.676000 86.552000 L 78.837000 96.254000 L 77.913000 96.254000 Z " fill="#fb923c" fill-opacity="1.000000" />
<path d="M 86.464000 92.877000 L 88.136000 92.877000 L 88.136000 94.560000 L 86.464000 94.560000 Z M 86.464000 88.664000 L 88.136000 88.664000 L 88.136000 90.347000 L 86.464000 90.347000 Z " fill="#fb923c" fill-opacity="1.000000" />
<path d="M 95.741000 86.552000 L 96.676000 86.552000 L 92.837000 96.254000 L 91.913000 96.254000 Z " fill="#fb923c" fill-opacity="1.000000" />
<path d="M 109.785000 96.254000 L 105.869000 86.552000 L 106.815000 86.552000 L 110.720000 96.254000 Z " fill="#fb923c" fill-opacity="1.000000" />
<path d="M 130.785000 96.254000 L 126.869000 86.552000 L 127.815000 86.552000 L 131.720000 96.254000 Z " fill="#fb923c" fill-opacity="1.000000" />
<path d="M 135.464000 92.877000 L 137.136000 92.877000 L 137.136000 94.560000 L 135.464000 94.560000 Z M 135.464000 88.664000 L 137.136000 88.664000 L 137.136000 90.347000 L 135.464000 90.347000 Z " fill="#fb923c" fill-opacity="1.000000" />
<path d="M 144.785000 96.254000 L 140.869000 86.552000 L 141.815000 86.552000 L 145.720000 96.254000 Z " fill="#fb923c" fill-opacity="1.000000" />
<path d="M 158.741000 86.552000 L 159.676000 86.552000 L 155.837000 96.254000 L 154.913000 96.254000 Z " fill="#fb923c" fill-opacity="1.000000" />
<path d="M 179.741000 86.552000 L 180.676000 86.552000 L 176.837000 96.254000 L 175.913000 96.254000 Z " fill="#fb923c" fill-opacity="1.000000" />
<path d="M 184.464000 92.877000 L 186.136000 92.877000 L 186.136000 94.560000 L 184.464000 94.560000 Z M 184.464000 88.664000 L 186.136000 88.664000 L 186.136000 90.347000 L 184.464000 90.347000 Z " fill="#fb923c" fill-opacity="1.000000" />
<path d="M 193.741000 86.552000 L 194.676000 86.552000 L 190.837000 96.254000 L 189.913000 96.254000 Z " fill="#fb923c" fill-opacity="1.000000" />
<path d="M 207.785000 96.254000 L 203.869000 86.552000 L 204.815000 86.552000 L 208.720000 96.254000 Z " fill="#fb923c" fill-opacity="1.000000" />
<path d="M 228.785000 96.254000 L 224.869000 86.552000 L 225.815000 86.552000 L 229.720000 96.254000 Z " fill="#fb923c" fill-opacity="1.000000" />
<path d="M 233.464000 92.877000 L 235.136000 92.877000 L 235.136000 94.560000 L 233.464000 94.560000 Z M 233.464000 88.664000 L 235.136000 88.664000 L 235.136000 90.347000 L 233.464000 90.347000 Z " fill="#fb923c" fill-opacity="1.000000" />
<path d="M 242.785000 96.254000 L 238.869000 86.552000 L 239.815000 86.552000 L 243.720000 96.254000 Z " fill="#fb923c" fill-opacity="1.000000" />
<path d="M 249.576000 92.855000 Q 249.235000 92.855000 249.037000 92.800000 Q 248.839000 92.745000 248.635500 92.591000 Q 248.432000 92.437000 248.069000 92.063000 Q 247.596000 91.590000 247.387000 91.452500 Q 247.178000 91.315000 246.958000 91.315000 Q 246.716000 91.315000 246.617000 91.386500 Q 246.518000 91.458000 246.485000 91.678000 Q 246.452000 91.898000 246.452000 92.415000 L 245.605000 92.415000 Q 245.605000 91.546000 245.698500 91.183000 Q 245.792000 90.820000 246.072500 90.699000 Q 246.353000 90.578000 247.013000 90.578000 Q 247.365000 90.578000 247.568500 90.633000 Q 247.772000 90.688000 247.981000 90.842000 Q 248.190000 90.996000 248.553000 91.370000 Q 249.015000 91.843000 249.224000 91.980500 Q 249.433000 92.118000 249.631000 92.118000 Q 249.884000 92.118000 249.988500 92.041000 Q 250.093000 91.964000 250.126000 91.738500 Q 250.159000 91.513000 250.159000 90.974000 L 250.995000 90.974000 Q 250.995000 91.854000 250.901500 92.233500 Q 250.808000 92.613000 250.522000 92.734000 Q 250.236000 92.855000 249.576000 92.855000 Z " fill="#fb923c" fill-opacity="1.000000" />
<path d="M 256.576000 92.855000 Q 256.235000 92.855000 256.037000 92.800000 Q 255.839000 92.745000 255.635500 92.591000 Q 255.432000 92.437000 255.069000 92.063000 Q 254.596000 91.590000 254.387000 91.452500 Q 254.178000 91.315000 253.958000 91.315000 Q 253.716000 91.315000 253.617000 91.386500 Q 253.518000 91.458000 253.485000 91.678000 Q 253.452000 91.898000 253.452000 92.415000 L 252.605000 92.415000 Q 252.605000 91.546000 252.698500 91.183000 Q 252.792000 90.820000 253.072500 90.699000 Q 253.353000 90.578000 254.013000 90.578000 Q 254.365000 90.578000 254.568500 90.633000 Q 254.772000 90.688000 254.981000 90.842000 Q 255.190000 90.996000 255.553000 91.370000 Q 256.015000 91.843000 256.224000 91.980500 Q 256.433000 92.118000 256.631000 92.118000 Q 256.884000 92.118000 256.988500 92.041000 Q 257.093000 91.964000 257.126000 91.738500 Q 257.159000 91.513000 257.159000 90.974000 L 257.995000 90.974000 Q 257.995000 91.854000 257.901500 92.233500 Q 257.808000 92.613000 257.522000 92.734000 Q 257.236000 92.855000 256.576000 92.855000 Z " fill="#fb923c" fill-opacity="1.000000" />
<path d="M 263.785000 96.254000 L 259.869000 86.552000 L 260.815000 86.552000 L 264.720000 96.254000 Z " fill="#fb923c" fill-opacity="1.000000" />
<path d="M 266.660000 95.968000 L 271.940000 95.968000 L 271.940000 96.870000 L 266.660000 96.870000 Z " fill="#fb923c" fill-opacity="1.000000" />
<path d="M 273.660000 95.968000 L 278.940000 95.968000 L 278.940000 96.870000 L 273.660000 96.870000 Z " fill="#fb923c" fill-opacity="1.000000" />
<path d="M 284.785000 96.254000 L 280.869000 86.552000 L 281.815000 86.552000 L 285.720000 96.254000 Z " fill="#fb923c" fill-opacity="1.000000" />
<path d="M 291.741000 86.552000 L 292.676000 86.552000 L 288.837000 96.254000 L 287.913000 96.254000 Z " fill="#fb923c" fill-opacity="1.000000" />
<path d="M 14.660000 81.968000 L 19.940000 81.968000 L 19.940000 82.870000 L 14.660000 82.870000 Z " fill="#fb923c" fill-opacity="1.000000" />
<path d="M 21.660000 81.968000 L 26.940000 81.968000 L 26.940000 82.870000 L 21.660000 82.870000 Z " fill="#fb923c" fill-opacity="1.000000" />
<path d="M 32.741000 72.552000 L 33.676000 72.552000 L 29.837000 82.254000 L 28.913000 82.254000 Z " fill="#fb923c" fill-opacity="1.000000" />
<path d="M 37.464000 78.877000 L 39.136000 78.877000 L 39.136000 80.560000 L 37.464000 80.560000 Z M 37.464000 74.664000 L 39.136000 74.664000 L 39.136000 76.347000 L 37.464000 76.347000 Z " fill="#fb923c" fill-opacity="1.000000" />
<path d="M 46.741000 72.552000 L 47.676000 72.552000 L 43.837000 82.254000 L 42.913000 82.254000 Z " fill="#fb923c" fill-opacity="1.000000" />
<path d="M 60.741000 72.552000 L 61.676000 72.552000 L 57.837000 82.254000 L 56.913000 82.254000 Z " fill="#fb923c" fill-opacity="1.000000" />
<path d="M 65.464000 78.877000 L 67.136000 78.877000 L 67.136000 80.560000 L 65.464000 80.560000 Z M 65.464000 74.664000 L 67.136000 74.664000 L 67.136000 76.347000 L 65.464000 76.347000 Z " fill="#fb923c" fill-opacity="1.000000" />
<path d="M 74.741000 72.552000 L 75.676000 72.552000 L 71.837000 82.254000 L 70.913000 82.254000 Z " fill="#fb923c" fill-opacity="1.000000" />
<path d="M 81.785000 82.254000 L 77.869000 72.552000 L 78.815000 72.552000 L 82.720000 82.254000 Z " fill="#fb923c" fill-opacity="1.000000" />
<path d="M 86.464000 78.877000 L 88.136000 78.877000 L 88.136000 80.560000 L 86.464000 80.560000 Z M 86.464000 74.664000 L 88.136000 74.664000 L 88.136000 76.347000 L 86.464000 76.347000 Z " fill="#fb923c" fill-opacity="1.000000" />
<path d="M 95.785000 82.254000 L 91.869000 72.552000 L 92.815000 72.552000 L 96.720000 82.254000 Z " fill="#fb923c" fill-opacity="1.000000" />
<path d="M 109.741000 72.552000 L 110.676000 72.552000 L 106.837000 82.254000 L 105.913000 82.254000 Z " fill="#fb923c" fill-opacity="1.000000" />
<path d="M 112.660000 81.968000 L 117.940000 81.968000 L 117.940000 82.870000 L 112.660000 82.870000 Z " fill="#fb923c" fill-opacity="1.000000" />
<path d="M 119.660000 81.968000 L 124.940000 81.968000 L 124.940000 82.870000 L 119.660000 82.870000 Z " fill="#fb923c" fill-opacity="1.000000" />
<path d="M 130.741000 72.552000 L 131.676000 72.552000 L 127.837000 82.254000 L 126.913000 82.254000 Z " fill="#fb923c" fill-opacity="1.000000" />
<path d="M 135.464000 78.877000 L 137.136000 78.877000 L 137.136000 80.560000 L 135.464000 80.560000 Z M 135.464000 74.664000 L 137.136000 74.664000 L 137.136000 76.347000 L 135.464000 76.347000 Z " fill="#fb923c" fill-opacity="1.000000" />
<path d="M 144.741000 72.552000 L 145.676000 72.552000 L 141.837000 82.254000 L 140.913000 82.254000 Z " fill="#fb923c" fill-opacity="1.000000" />
<path d="M 165.741000 72.552000 L 166.676000 72.552000 L 162.837000 82.254000 L 161.913000 82.254000 Z " fill="#fb923c" fill-opacity="1.000000" />
<path d="M 186.741000 72.552000 L 187.676000 72.552000 L 183.837000 82.254000 L 182.913000 82.254000 Z " fill="#fb923c" fill-opacity="1.000000" />
<path d="M 193.785000 82.254000 L 189.869000 72.552000 L 190.815000 72.552000 L 194.720000 82.254000 Z " fill="#fb923c" fill-opacity="1.000000" />
<path d="M 207.741000 72.552000 L 208.676000 72.552000 L 204.837000 82.254000 L 203.913000 82.254000 Z " fill="#fb923c" fill-opacity="1.000000" />
<path d="M 210.660000 81.968000 L 215.940000 81.968000 L 215.940000 82.870000 L 210.660000 82.870000 Z " fill="#fb923c" fill-opacity="1.000000" />
<path d="M 217.660000 81.968000 L 222.940000 81.968000 L 222.940000 82.870000 L 217.660000 82.870000 Z " fill="#fb923c" fill-opacity="1.000000" />
<path d="M 228.741000 72.552000 L 229.676000 72.552000 L 225.837000 82.254000 L 224.913000 82.254000 Z " fill="#fb923c" fill-opacity="1.000000" />
<path d="M 233.464000 78.877000 L 235.136000 78.877000 L 235.136000 80.560000 L 233.464000 80.560000 Z M 233.464000 74.664000 L 235.136000 74.664000 L 235.136000 76.347000 L 233.464000 76.347000 Z " fill="#fb923c" fill-opacity="1.000000" />
<path d="M 240.464000 78.877000 L 242.136000 78.877000 L 242.136000 80.560000 L 240.464000 80.560000 Z M 240.464000 74.664000 L 242.136000 74.664000 L 242.136000 76.347000 L 240.464000 76.347000 Z " fill="#fb923c" fill-opacity="1.000000" />
<path d="M 247.464000 78.877000 L 249.136000 78.877000 L 249.136000 80.560000 L 247.464000 80.560000 Z M 247.464000 74.664000 L 249.136000 74.664000 L 249.136000 76.347000 L 247.464000 76.347000 Z " fill="#fb923c" fill-opacity="1.000000" />
<path d="M 254.464000 78.877000 L 256.136000 78.877000 L 256.136000 80.560000 L 254.464000 80.560000 Z M 254.464000 74.664000 L 256.136000 74.664000 L 256.136000 76.347000 L 254.464000 76.347000 Z " fill="#fb923c" fill-opacity="1.000000" />
<path d="M 261.849000 72.486000 L 262.751000 72.486000 L 262.751000 82.078000 L 261.849000 82.078000 Z " fill="#fb923c" fill-opacity="1.000000" />
<path d="M 277.785000 82.254000 L 273.869000 72.552000 L 274.815000 72.552000 L 278.720000 82.254000 Z " fill="#fb923c" fill-opacity="1.000000" />
<path d="M 282.464000 78.877000 L 284.136000 78.877000 L 284.136000 80.560000 L 282.464000 80.560000 Z M 282.464000 74.664000 L 284.136000 74.664000 L 284.136000 76.347000 L 282.464000 76.347000 Z " fill="#fb923c" fill-opacity="1.000000" />
<path d="M 291.785000 82.254000 L 287.869000 72.552000 L 288.815000 72.552000 L 292.720000 82.254000 Z " fill="#fb923c" fill-opacity="1.000000" />
<path d="M 18.741000 58.552000 L 19.676000 58.552000 L 15.837000 68.254000 L 14.913000 68.254000 Z " fill="#fb923c" fill-opacity="1.000000" />
<path d="M 39.741000 58.552000 L 40.676000 58.552000 L 36.837000 68.254000 L 35.913000 68.254000 Z " fill="#fb923c" fill-opacity="1.000000" />
<path d="M 44.464000 64.877000 L 46.136000 64.877000 L 46.136000 66.560000 L 44.464000 66.560000 Z M 44.464000 60.664000 L 46.136000 60.664000 L 46.136000 62.347000 L 44.464000 62.347000 Z " fill="#fb923c" fill-opacity="1.000000" />
<path d="M 53.741000 58.552000 L 54.676000 58.552000 L 50.837000 68.254000 L 49.913000 68.254000 Z " fill="#fb923c" fill-opacity="1.000000" />
<path d="M 67.741000 58.552000 L 68.676000 58.552000 L 64.837000 68.254000 L 63.913000 68.254000 Z " fill="#fb923c" fill-opacity="1.000000" />
<path d="M 72.464000 64.877000 L 74.136000 64.877000 L 74.136000 66.560000 L 72.464000 66.560000 Z M 72.464000 60.664000 L 74.136000 60.664000 L 74.136000 62.347000 L 72.464000 62.347000 Z " fill="#fb923c" fill-opacity="1.000000" />
<path d="M 79.464000 64.877000 L 81.136000 64.877000 L 81.136000 66.560000 L 79.464000 66.560000 Z M 79.464000 60.664000 L 81.136000 60.664000 L 81.136000 62.347000 L 79.464000 62.347000 Z " fill="#fb923c" fill-opacity="1.000000" />
<path d="M 88.785000 68.254000 L 84.869000 58.552000 L 85.815000 58.552000 L 89.720000 68.254000 Z " fill="#fb923c" fill-opacity="1.000000" />
<path d="M 116.741000 58.552000 L 117.676000 58.552000 L 113.837000 68.254000 L 112.913000 68.254000 Z " fill="#fb923c" fill-opacity="1.000000" />
<path d="M 137.741000 58.552000 L 138.676000 58.552000 L 134.837000 68.254000 L 133.913000 68.254000 Z " fill="#fb923c" fill-opacity="1.000000" />
<path d="M 142.464000 64.877000 L 144.136000 64.877000 L 144.136000 66.560000 L 142.464000 66.560000 Z M 142.464000 60.664000 L 144.136000 60.664000 L 144.136000 62.347000 L 142.464000 62.347000 Z " fill="#fb923c" fill-opacity="1.000000" />
<path d="M 151.741000 58.552000 L 152.676000 58.552000 L 148.837000 68.254000 L 147.913000 68.254000 Z " fill="#fb923c" fill-opacity="1.000000" />
<path d="M 168.660000 67.968000 L 173.940000 67.968000 L 173.940000 68.870000 L 168.660000 68.870000 Z " fill="#fb923c" fill-opacity="1.000000" />
<path d="M 175.660000 67.968000 L 180.940000 67.968000 L 180.940000 68.870000 L 175.660000 68.870000 Z " fill="#fb923c" fill-opacity="1.000000" />
<path d="M 182.660000 67.968000 L 187.940000 67.968000 L 187.940000 68.870000 L 182.660000 68.870000 Z " fill="#fb923c" fill-opacity="1.000000" />
<path d="M 210.660000 67.968000 L 215.940000 67.968000 L 215.940000 68.870000 L 210.660000 68.870000 Z " fill="#fb923c" fill-opacity="1.000000" />
<path d="M 217.660000 67.968000 L 222.940000 67.968000 L 222.940000 68.870000 L 217.660000 68.870000 Z " fill="#fb923c" fill-opacity="1.000000" />
<path d="M 226.849000 58.486000 L 227.751000 58.486000 L 227.751000 68.078000 L 226.849000 68.078000 Z " fill="#fb923c" fill-opacity="1.000000" />
<path d="M 231.660000 67.968000 L 236.940000 67.968000 L 236.940000 68.870000 L 231.660000 68.870000 Z " fill="#fb923c" fill-opacity="1.000000" />
<path d="M 238.660000 67.968000 L 243.940000 67.968000 L 243.940000 68.870000 L 238.660000 68.870000 Z " fill="#fb923c" fill-opacity="1.000000" />
<path d="M 247.849000 58.486000 L 248.751000 58.486000 L 248.751000 68.078000 L 247.849000 68.078000 Z " fill="#fb923c" fill-opacity="1.000000" />
<path d="M 254.464000 64.877000 L 256.136000 64.877000 L 256.136000 66.560000 L 254.464000 66.560000 Z M 254.464000 60.664000 L 256.136000 60.664000 L 256.136000 62.347000 L 254.464000 62.347000 Z " fill="#fb923c" fill-opacity="1.000000" />
<path d="M 261.849000 58.486000 L 262.751000 58.486000 L 262.751000 68.078000 L 261.849000 68.078000 Z " fill="#fb923c" fill-opacity="1.000000" />
<path d="M 270.785000 68.254000 L 266.869000 58.552000 L 267.815000 58.552000 L 271.720000 68.254000 Z " fill="#fb923c" fill-opacity="1.000000" />
<path d="M 275.464000 64.877000 L 277.136000 64.877000 L 277.136000 66.560000 L 275.464000 66.560000 Z M 275.464000 60.664000 L 277.136000 60.664000 L 277.136000 62.347000 L 275.464000 62.347000 Z " fill="#fb923c" fill-opacity="1.000000" />
<path d="M 284.785000 68.254000 L 280.869000 58.552000 L 281.815000 58.552000 L 285.720000 68.254000 Z " fill="#fb923c" fill-opacity="1.000000" />
<path d="M 25.741000 44.552000 L 26.676000 44.552000 L 22.837000 54.254000 L 21.913000 54.254000 Z " fill="#fb923c" fill-opacity="1.000000" />
<path d="M 46.741000 44.552000 L 47.676000 44.552000 L 43.837000 54.254000 L 42.913000 54.254000 Z " fill="#fb923c" fill-opacity="1.000000" />
<path d="M 51.464000 50.877000 L 53.136000 50.877000 L 53.136000 52.560000 L 51.464000 52.560000 Z M 51.464000 46.664000 L 53.136000 46.664000 L 53.136000 48.347000 L 51.464000 48.347000 Z " fill="#fb923c" fill-opacity="1.000000" />
<path d="M 60.741000 44.552000 L 61.676000 44.552000 L 57.837000 54.254000 L 56.913000 54.254000 Z " fill="#fb923c" fill-opacity="1.000000" />
<path d="M 74.741000 44.552000 L 75.676000 44.552000 L 71.837000 54.254000 L 70.913000 54.254000 Z " fill="#fb923c" fill-opacity="1.000000" />
<path d="M 81.785000 54.254000 L 77.869000 44.552000 L 78.815000 44.552000 L 82.720000 54.254000 Z " fill="#fb923c" fill-opacity="1.000000" />
<path d="M 123.741000 44.552000 L 124.676000 44.552000 L 120.837000 54.254000 L 119.913000 54.254000 Z " fill="#fb923c" fill-opacity="1.000000" />
<path d="M 144.741000 44.552000 L 145.676000 44.552000 L 141.837000 54.254000 L 140.913000 54.254000 Z " fill="#fb923c" fill-opacity="1.000000" />
<path d="M 149.464000 50.877000 L 151.136000 50.877000 L 151.136000 52.560000 L 149.464000 52.560000 Z M 149.464000 46.664000 L 151.136000 46.664000 L 151.136000 48.347000 L 149.464000 48.347000 Z " fill="#fb923c" fill-opacity="1.000000" />
<path d="M 158.741000 44.552000 L 159.676000 44.552000 L 155.837000 54.254000 L 154.913000 54.254000 Z " fill="#fb923c" fill-opacity="1.000000" />
<path d="M 226.849000 44.486000 L 227.751000 44.486000 L 227.751000 54.078000 L 226.849000 54.078000 Z " fill="#fb923c" fill-opacity="1.000000" />
<path d="M 247.849000 44.486000 L 248.751000 44.486000 L 248.751000 54.078000 L 247.849000 54.078000 Z " fill="#fb923c" fill-opacity="1.000000" />
<path d="M 254.464000 50.877000 L 256.136000 50.877000 L 256.136000 52.560000 L 254.464000 52.560000 Z M 254.464000 46.664000 L 256.136000 46.664000 L 256.136000 48.347000 L 254.464000 48.347000 Z " fill="#fb923c" fill-opacity="1.000000" />
<path d="M 261.849000 44.486000 L 262.751000 44.486000 L 262.751000 54.078000 L 261.849000 54.078000 Z " fill="#fb923c" fill-opacity="1.000000" />
<path d="M 268.464000 50.877000 L 270.136000 50.877000 L 270.136000 52.560000 L 268.464000 52.560000 Z M 268.464000 46.664000 L 270.136000 46.664000 L 270.136000 48.347000 L 268.464000 48.347000 Z " fill="#fb923c" fill-opacity="1.000000" />
<path d="M 277.785000 54.254000 L 273.869000 44.552000 L 274.815000 44.552000 L 278.720000 54.254000 Z " fill="#fb923c" fill-opacity="1.000000" />
<path d="M 32.741000 30.552000 L 33.676000 30.552000 L 29.837000 40.254000 L 28.913000 40.254000 Z " fill="#fb923c" fill-opacity="1.000000" />
<path d="M 53.741000 30.552000 L 54.676000 30.552000 L 50.837000 40.254000 L 49.913000 40.254000 Z " fill="#fb923c" fill-opacity="1.000000" />
<path d="M 58.464000 36.877000 L 60.136000 36.877000 L 60.136000 38.560000 L 58.464000 38.560000 Z M 58.464000 32.664000 L 60.136000 32.664000 L 60.136000 34.347000 L 58.464000 34.347000 Z " fill="#fb923c" fill-opacity="1.000000" />
<path d="M 67.741000 30.552000 L 68.676000 30.552000 L 64.837000 40.254000 L 63.913000 40.254000 Z " fill="#fb923c" fill-opacity="1.000000" />
<path d="M 70.660000 39.968000 L 75.940000 39.968000 L 75.940000 40.870000 L 70.660000 40.870000 Z " fill="#fb923c" fill-opacity="1.000000" />
<path d="M 130.741000 30.552000 L 131.676000 30.552000 L 127.837000 40.254000 L 126.913000 40.254000 Z " fill="#fb923c" fill-opacity="1.000000" />
<path d="M 151.741000 30.552000 L 152.676000 30.552000 L 148.837000 40.254000 L 147.913000 40.254000 Z " fill="#fb923c" fill-opacity="1.000000" />
<path d="M 156.464000 36.877000 L 158.136000 36.877000 L 158.136000 38.560000 L 156.464000 38.560000 Z M 156.464000 32.664000 L 158.136000 32.664000 L 158.136000 34.347000 L 156.464000 34.347000 Z " fill="#fb923c" fill-opacity="1.000000" />
<path d="M 165.741000 30.552000 L 166.676000 30.552000 L 162.837000 40.254000 L 161.913000 40.254000 Z " fill="#fb923c" fill-opacity="1.000000" />
<path d="M 226.849000 30.486000 L 227.751000 30.486000 L 227.751000 40.078000 L 226.849000 40.078000 Z " fill="#fb923c" fill-opacity="1.000000" />
<path d="M 247.849000 30.486000 L 248.751000 30.486000 L 248.751000 40.078000 L 247.849000 40.078000 Z " fill="#fb923c" fill-opacity="1.000000" />
<path d="M 254.464000 36.877000 L 256.136000 36.877000 L 256.136000 38.560000 L 254.464000 38.560000 Z M 254.464000 32.664000 L 256.136000 32.664000 L 256.136000 34.347000 L 254.464000 34.347000 Z " fill="#fb923c" fill-opacity="1.000000" />
<path d="M 261.464000 36.877000 L 263.136000 36.877000 L 263.136000 38.560000 L 261.464000 38.560000 Z M 261.464000 32.664000 L 263.136000 32.664000 L 263.136000 34.347000 L 261.464000 34.347000 Z " fill="#fb923c" fill-opacity="1.000000" />
<path d="M 270.785000 40.254000 L 266.869000 30.552000 L 267.815000 30.552000 L 271.720000 40.254000 Z " fill="#fb923c" fill-opacity="1.000000" />
<path d="M 39.741000 16.552000 L 40.676000 16.552000 L 36.837000 26.254000 L 35.913000 26.254000 Z " fill="#fb923c" fill-opacity="1.000000" />
<path d="M 60.741000 16.552000 L 61.676000 16.552000 L 57.837000 26.254000 L 56.913000 26.254000 Z " fill="#fb923c" fill-opacity="1.000000" />
<path d="M 67.785000 26.254000 L 63.869000 16.552000 L 64.815000 16.552000 L 68.720000 26.254000 Z " fill="#fb923c" fill-opacity="1.000000" />
<path d="M 137.741000 16.552000 L 138.676000 16.552000 L 134.837000 26.254000 L 133.913000 26.254000 Z " fill="#fb923c" fill-opacity="1.000000" />
<path d="M 158.741000 16.552000 L 159.676000 16.552000 L 155.837000 26.254000 L 154.913000 26.254000 Z " fill="#fb923c" fill-opacity="1.000000" />
<path d="M 165.785000 26.254000 L 161.869000 16.552000 L 162.815000 16.552000 L 166.720000 26.254000 Z " fill="#fb923c" fill-opacity="1.000000" />
<path d="M 235.741000 16.552000 L 236.676000 16.552000 L 232.837000 26.254000 L 231.913000 26.254000 Z " fill="#fb923c" fill-opacity="1.000000" />
<path d="M 238.660000 25.968000 L 243.940000 25.968000 L 243.940000 26.870000 L 238.660000 26.870000 Z " fill="#fb923c" fill-opacity="1.000000" />
<path d="M 245.660000 25.968000 L 250.940000 25.968000 L 250.940000 26.870000 L 245.660000 26.870000 Z " fill="#fb923c" fill-opacity="1.000000" />
<path d="M 256.741000 16.552000 L 257.676000 16.552000 L 253.837000 26.254000 L 252.913000 26.254000 Z " fill="#fb923c" fill-opacity="1.000000" />
<path d="M 263.785000 26.254000 L 259.869000 16.552000 L 260.815000 16.552000 L 264.720000 26.254000 Z " fill="#fb923c" fill-opacity="1.000000" />
<path d="M 42.660000 11.968000 L 47.940000 11.968000 L 47.940000 12.870000 L 42.660000 12.870000 Z " fill="#fb923c" fill-opacity="1.000000" />
<path d="M 49.660000 11.968000 L 54.940000 11.968000 L 54.940000 12.870000 L 49.660000 12.870000 Z " fill="#fb923c" fill-opacity="1.000000" />
<path d="M 56.660000 11.968000 L 61.940000 11.968000 L 61.940000 12.870000 L 56.660000 12.870000 Z " fill="#fb923c" fill-opacity="1.000000" />
<path d="M 140.660000 11.968000 L 145.940000 11.968000 L 145.940000 12.870000 L 140.660000 12.870000 Z " fill="#fb923c" fill-opacity="1.000000" />
<path d="M 147.660000 11.968000 L 152.940000 11.968000 L 152.940000 12.870000 L 147.660000 12.870000 Z " fill="#fb923c" fill-opacity="1.000000" />
<path d="M 154.660000 11.968000 L 159.940000 11.968000 L 159.940000 12.870000 L 154.660000 12.870000 Z " fill="#fb923c" fill-opacity="1.000000" />
<path d="M 238.660000 11.968000 L 243.940000 11.968000 L 243.940000 12.870000 L 238.660000 12.870000 Z " fill="#fb923c" fill-opacity="1.000000" />
<path d="M 245.660000 11.968000 L 250.940000 11.968000 L 250.940000 12.870000 L 245.660000 12.870000 Z " fill="#fb923c" fill-opacity="1.000000" />
<path d="M 252.660000 11.968000 L 257.940000 11.968000 L 257.940000 12.870000 L 252.660000 12.870000 Z " fill="#fb923c" fill-opacity="1.000000" />
</svg>